<?xml version="1.0" encoding="utf-8"?>
<!-- Generator: Adobe Illustrator 27.5.0, SVG Export Plug-In . SVG Version: 6.00 Build 0)  -->
<svg version="1.1" xmlns="http://www.w3.org/2000/svg" xmlns:xlink="http://www.w3.org/1999/xlink" x="0px" y="0px"
	 viewBox="0 0 750 500" style="enable-background:new 0 0 750 500;" xml:space="preserve">
<g id="BACKGROUND">
	<rect style="fill:#1D3362;" width="750" height="500"/>
</g>
<g id="OBJECTS">
	<g>
		<defs>
			<rect id="SVGID_1_" width="750" height="500"/>
		</defs>
		<clipPath id="SVGID_00000178889338606706523940000008570385523192587650_">
			<use xlink:href="#SVGID_1_"  style="overflow:visible;"/>
		</clipPath>
		
			<path style="clip-path:url(#SVGID_00000178889338606706523940000008570385523192587650_);fill:none;stroke:#B92D3F;stroke-width:3;stroke-miterlimit:10;" d="
			M309.225,559.118c-13.147-37.048,7.183-80.098,39.789-102.059c32.606-21.96,74.327-26.111,113.415-21.924
			c39.088,4.186,76.933,15.924,115.563,23.212c19.32,3.645,40.381,5.929,57.709-3.361c23.052-12.359,31.659-40.402,46.737-61.776
			c21.61-30.635,57.875-48.119,94.538-55.953c36.663-7.834,74.508-7.245,111.955-9.04c37.447-1.795,75.727-6.28,109.176-23.211"/>
		<g style="clip-path:url(#SVGID_00000178889338606706523940000008570385523192587650_);">
			
				<line style="fill:none;stroke:#FFFFFF;stroke-width:2;stroke-miterlimit:10;stroke-dasharray:40,50,200;" x1="102.533" y1="205.719" x2="275.088" y2="26.872"/>
			
				<line style="fill:none;stroke:#FFFFFF;stroke-width:2;stroke-miterlimit:10;stroke-dasharray:40,50,200;" x1="162.596" y1="265.783" x2="335.152" y2="86.936"/>
		</g>
		<g style="clip-path:url(#SVGID_00000178889338606706523940000008570385523192587650_);">
			<g style="opacity:0.3;">
				<path d="M99.473,187.003L-0.366,87.164c-3.104-3.104-3.104-8.182,0-11.286l99.839-99.839c3.104-3.104,8.182-3.104,11.286,0
					l99.839,99.839c3.104,3.104,3.104,8.182,0,11.286l-99.839,99.839C107.655,190.107,102.576,190.107,99.473,187.003z"/>
			</g>
			<g>
				<path style="fill:#E3843A;" d="M94.473,184.003L-5.366,84.164c-3.104-3.104-3.104-8.182,0-11.286l99.839-99.839
					c3.104-3.104,8.182-3.104,11.286,0l99.839,99.839c3.104,3.104,3.104,8.182,0,11.286l-99.839,99.839
					C102.655,187.107,97.576,187.107,94.473,184.003z"/>
			</g>
		</g>
		<g style="clip-path:url(#SVGID_00000178889338606706523940000008570385523192587650_);">
			<g style="opacity:0.3;">
				<path style="fill:none;stroke:#000000;stroke-width:15;stroke-miterlimit:10;" d="M159.54,187.003L59.701,87.164
					c-3.104-3.104-3.104-8.182,0-11.286l99.839-99.839c3.104-3.104,8.182-3.104,11.286,0l99.839,99.839
					c3.104,3.104,3.104,8.182,0,11.286l-99.839,99.839C167.722,190.107,162.644,190.107,159.54,187.003z"/>
			</g>
			<g>
				<path style="fill:none;stroke:#F3D637;stroke-width:15;stroke-miterlimit:10;" d="M154.54,184.003L54.701,84.164
					c-3.104-3.104-3.104-8.182,0-11.286l99.839-99.839c3.104-3.104,8.182-3.104,11.286,0l99.839,99.839
					c3.104,3.104,3.104,8.182,0,11.286l-99.839,99.839C162.722,187.107,157.644,187.107,154.54,184.003z"/>
			</g>
		</g>
		<g style="clip-path:url(#SVGID_00000178889338606706523940000008570385523192587650_);">
			<path style="fill:#FFFFFF;" d="M150.936-177.884c-0.005,0-0.009,0-0.014,0c-0.014,0-0.027,0-0.041,0
				c-0.552,0.001-0.998,0.45-0.996,1.002c0.002,0.552,0.45,0.998,1.002,0.998c0.001,0,0.001,0,0.002,0l0.048,0
				c0.552-0.001,1-0.449,1-1.002c0-0.551-0.446-0.998-0.997-0.998C150.939-177.884,150.937-177.884,150.936-177.884L150.936-177.884
				z M146.309-177.1c-0.11,0-0.222,0.018-0.332,0.057c-0.007,0.002-0.014,0.005-0.021,0.007c-0.002,0.001-0.004,0.001-0.007,0.002
				c-0.002,0.001-0.004,0.001-0.006,0.002c-0.008,0.003-0.016,0.006-0.025,0.009c-0.516,0.186-0.786,0.755-0.602,1.273
				c0.146,0.41,0.532,0.667,0.945,0.667c0.11,0,0.223-0.018,0.333-0.057l0.045-0.016c0.521-0.184,0.795-0.755,0.612-1.276
				C147.106-176.842,146.721-177.1,146.309-177.1L146.309-177.1z M142.211-174.817c-0.221,0-0.444,0.073-0.629,0.223
				c-0.014,0.011-0.029,0.023-0.043,0.035c-0.429,0.348-0.493,0.977-0.145,1.406c0.198,0.243,0.486,0.369,0.777,0.369
				c0.222,0,0.445-0.073,0.631-0.224l0.037-0.03c0.429-0.348,0.495-0.978,0.147-1.408
				C142.79-174.69,142.502-174.817,142.211-174.817L142.211-174.817z M138.659-171.372c-0.256,0-0.512,0.098-0.707,0.293
				l-0.001,0.001c0,0,0,0,0,0l0,0c0,0,0,0,0,0l-0.001,0.001c0,0,0,0,0,0l0,0c0,0,0,0,0,0l-0.002,0.002c0,0,0,0,0,0l-0.004,0.004
				c0,0,0,0,0,0l-0.001,0.001c0,0,0,0,0,0l-0.003,0.003c0,0,0,0,0,0l-0.002,0.002c0,0,0,0,0,0l-0.004,0.004c0,0,0,0,0,0
				l-0.002,0.002c0,0,0,0,0,0l-0.003,0.003c0,0,0,0,0,0l-0.001,0.001c0,0,0,0,0,0l-0.004,0.004c0,0,0,0,0,0l-0.002,0.002
				c0,0,0,0,0,0l0,0c0,0,0,0,0,0l-0.002,0.002c0,0,0,0,0,0l0,0c0,0,0,0,0,0l-0.001,0.001c-0.39,0.391-0.39,1.024,0,1.414
				c0.195,0.195,0.451,0.293,0.707,0.293c0.256,0,0.512-0.098,0.707-0.293l0.039-0.039c0.391-0.391,0.391-1.024,0-1.414
				C139.171-171.274,138.915-171.372,138.659-171.372L138.659-171.372z M135.085-167.797c-0.256,0-0.512,0.098-0.707,0.293
				l-0.039,0.039c-0.39,0.391-0.39,1.023,0,1.414c0.195,0.195,0.451,0.293,0.707,0.293s0.512-0.098,0.707-0.293l0.039-0.039
				c0.391-0.39,0.391-1.024,0-1.414C135.596-167.7,135.34-167.797,135.085-167.797L135.085-167.797z M131.51-164.223
				c-0.256,0-0.511,0.097-0.707,0.292l-0.04,0.04c-0.39,0.391-0.39,1.023,0.001,1.414c0.195,0.195,0.451,0.293,0.707,0.293
				s0.512-0.098,0.707-0.293l0.039-0.039c0.391-0.391,0.391-1.024,0-1.414C132.022-164.125,131.766-164.223,131.51-164.223
				L131.51-164.223z M127.936-160.649c-0.256,0-0.512,0.098-0.707,0.293l-0.039,0.039c-0.39,0.391-0.39,1.024,0,1.414
				c0.195,0.195,0.451,0.293,0.707,0.293c0.256,0,0.512-0.098,0.707-0.293l0.039-0.039c0.391-0.391,0.391-1.024,0-1.414
				C128.448-160.551,128.192-160.649,127.936-160.649L127.936-160.649z M124.361-157.074c-0.256,0-0.511,0.097-0.706,0.292
				l-0.04,0.04c-0.39,0.391-0.39,1.023,0.001,1.413c0.195,0.195,0.451,0.293,0.707,0.293c0.256,0,0.512-0.098,0.707-0.293
				l0.039-0.039c0.391-0.391,0.391-1.024,0-1.414C124.873-156.977,124.617-157.074,124.361-157.074L124.361-157.074z M120.787-153.5
				c-0.256,0-0.511,0.097-0.706,0.292l-0.041,0.041c-0.39,0.391-0.389,1.023,0.001,1.413c0.195,0.195,0.451,0.293,0.707,0.293
				c0.256,0,0.512-0.098,0.707-0.293l0.039-0.039c0.391-0.391,0.391-1.024,0-1.414C121.299-153.402,121.043-153.5,120.787-153.5
				L120.787-153.5z M117.213-149.925c-0.255,0-0.511,0.097-0.706,0.292l-0.006,0.006c-0.01,0.01-0.034,0.035-0.034,0.035
				c-0.391,0.39-0.391,1.024,0,1.414c0.195,0.195,0.451,0.293,0.707,0.293s0.512-0.098,0.707-0.293l0.039-0.039
				c0.39-0.391,0.39-1.024,0-1.414C117.724-149.828,117.468-149.925,117.213-149.925L117.213-149.925z M113.638-146.351
				c-0.255,0-0.511,0.097-0.706,0.292l-0.041,0.041c-0.389,0.391-0.389,1.023,0.001,1.413c0.195,0.195,0.451,0.293,0.707,0.293
				c0.256,0,0.512-0.098,0.707-0.293l0.039-0.039c0.391-0.391,0.391-1.024,0-1.414C114.15-146.253,113.894-146.351,113.638-146.351
				L113.638-146.351z M110.064-142.776c-0.255,0-0.511,0.097-0.706,0.291l-0.042,0.042c-0.389,0.391-0.389,1.023,0.001,1.413
				c0.195,0.195,0.451,0.293,0.707,0.293c0.256,0,0.512-0.098,0.707-0.293l0.039-0.039c0.391-0.391,0.391-1.024,0-1.414
				C110.576-142.679,110.32-142.776,110.064-142.776L110.064-142.776z M106.489-139.202c-0.255,0-0.51,0.097-0.705,0.291
				l-0.042,0.042c-0.389,0.391-0.388,1.023,0.002,1.413c0.195,0.195,0.451,0.293,0.707,0.293c0.256,0,0.512-0.098,0.707-0.293
				l0.039-0.039c0.391-0.391,0.391-1.024,0-1.414C107.001-139.104,106.745-139.202,106.489-139.202L106.489-139.202z
				 M102.915-135.628c-0.255,0-0.51,0.097-0.705,0.291l-0.042,0.042c-0.389,0.391-0.388,1.023,0.002,1.413
				c0.195,0.195,0.451,0.293,0.707,0.293s0.512-0.098,0.707-0.293l0.039-0.039c0.39-0.39,0.39-1.024,0-1.414
				C103.427-135.53,103.171-135.628,102.915-135.628L102.915-135.628z M99.34-132.053c-0.255,0-0.51,0.097-0.705,0.291l-0.043,0.043
				c-0.388,0.391-0.388,1.022,0.002,1.412c0.195,0.195,0.451,0.293,0.707,0.293c0.256,0,0.512-0.098,0.707-0.293l0.039-0.039
				c0.391-0.391,0.391-1.024,0-1.414C99.852-131.956,99.596-132.053,99.34-132.053L99.34-132.053z M95.766-128.479
				c-0.255,0-0.51,0.097-0.705,0.291l-0.043,0.043c-0.388,0.391-0.388,1.022,0.002,1.412c0.195,0.195,0.451,0.293,0.707,0.293
				c0.256,0,0.512-0.098,0.707-0.293l0.039-0.039c0.391-0.39,0.391-1.024,0-1.414C96.278-128.381,96.022-128.479,95.766-128.479
				L95.766-128.479z M92.191-124.904c-0.255,0-0.51,0.097-0.705,0.291l-0.043,0.043c-0.388,0.391-0.387,1.022,0.002,1.412
				c0.195,0.195,0.451,0.293,0.707,0.293c0.256,0,0.512-0.098,0.707-0.293l0.039-0.039c0.391-0.391,0.391-1.024,0-1.414
				C92.703-124.807,92.447-124.904,92.191-124.904L92.191-124.904z M88.617-121.33c-0.256,0-0.512,0.098-0.707,0.293l-0.039,0.039
				c-0.391,0.391-0.391,1.024,0,1.414c0.195,0.195,0.451,0.293,0.707,0.293s0.512-0.098,0.707-0.293l0.039-0.039
				c0.39-0.391,0.39-1.024,0-1.414C89.129-121.232,88.873-121.33,88.617-121.33L88.617-121.33z M85.043-117.756
				c-0.255,0-0.51,0.097-0.704,0.29l-0.044,0.044c-0.388,0.391-0.387,1.022,0.003,1.412c0.195,0.195,0.451,0.293,0.707,0.293
				s0.512-0.098,0.707-0.293l0.039-0.039c0.39-0.39,0.39-1.024,0-1.414C85.554-117.658,85.299-117.756,85.043-117.756
				L85.043-117.756z M81.468-114.181c-0.255,0-0.509,0.097-0.704,0.29l-0.044,0.044c-0.388,0.391-0.387,1.022,0.003,1.411
				c0.195,0.195,0.451,0.293,0.707,0.293c0.256,0,0.512-0.098,0.707-0.293l0.039-0.039c0.391-0.39,0.391-1.024,0-1.414
				C81.98-114.083,81.724-114.181,81.468-114.181L81.468-114.181z M77.894-110.607c-0.256,0-0.512,0.098-0.707,0.293l-0.039,0.039
				c-0.39,0.39-0.39,1.024,0,1.414c0.195,0.195,0.451,0.293,0.707,0.293c0.256,0,0.512-0.098,0.707-0.293l0.039-0.039
				c0.391-0.391,0.391-1.024,0-1.414C78.406-110.509,78.15-110.607,77.894-110.607L77.894-110.607z M74.319-107.032
				c-0.255,0-0.509,0.097-0.704,0.29l-0.045,0.045c-0.387,0.391-0.386,1.022,0.003,1.411c0.195,0.195,0.451,0.293,0.707,0.293
				c0.256,0,0.512-0.098,0.707-0.293l0.039-0.039c0.391-0.391,0.391-1.024,0-1.414C74.831-106.935,74.575-107.032,74.319-107.032
				L74.319-107.032z M70.745-103.458c-0.255,0-0.509,0.097-0.704,0.29l-0.045,0.045c-0.387,0.391-0.386,1.022,0.003,1.411
				c0.195,0.195,0.451,0.293,0.707,0.293s0.512-0.098,0.707-0.293l0.039-0.039c0.391-0.39,0.391-1.024,0-1.414
				C71.257-103.36,71.001-103.458,70.745-103.458L70.745-103.458z M67.171-99.883c-0.256,0-0.512,0.098-0.707,0.293l-0.039,0.039
				c-0.391,0.39-0.391,1.024,0,1.414c0.195,0.195,0.451,0.293,0.707,0.293c0.256,0,0.512-0.098,0.707-0.293l0.039-0.039
				c0.391-0.391,0.391-1.024,0-1.414C67.682-99.786,67.426-99.883,67.171-99.883L67.171-99.883z M63.596-96.309
				c-0.254,0-0.509,0.096-0.703,0.289l-0.046,0.046c-0.387,0.391-0.386,1.021,0.004,1.411c0.195,0.195,0.451,0.293,0.707,0.293
				c0.256,0,0.512-0.098,0.707-0.293l0.039-0.039c0.391-0.391,0.391-1.024,0-1.414C64.108-96.211,63.852-96.309,63.596-96.309
				L63.596-96.309z M60.022-92.734c-0.254,0-0.509,0.096-0.703,0.289l-0.046,0.046c-0.387,0.391-0.385,1.021,0.004,1.41
				c0.195,0.195,0.451,0.293,0.707,0.293c0.256,0,0.512-0.098,0.707-0.293l0.039-0.039c0.391-0.391,0.391-1.024,0-1.414
				C60.534-92.637,60.278-92.734,60.022-92.734L60.022-92.734z M56.447-89.16c-0.256,0-0.512,0.098-0.707,0.293l-0.039,0.039
				c-0.391,0.391-0.391,1.024,0,1.414c0.195,0.195,0.451,0.293,0.707,0.293c0.256,0,0.512-0.098,0.707-0.293l0.039-0.039
				c0.39-0.39,0.39-1.024,0-1.414C56.959-89.063,56.703-89.16,56.447-89.16L56.447-89.16z M52.873-85.586
				c-0.254,0-0.508,0.096-0.703,0.289l-0.047,0.047c-0.387,0.391-0.385,1.021,0.004,1.41c0.195,0.195,0.451,0.293,0.707,0.293
				s0.512-0.098,0.707-0.293l0.039-0.039c0.39-0.39,0.39-1.024,0-1.414C53.385-85.488,53.129-85.586,52.873-85.586L52.873-85.586z
				 M49.299-82.011c-0.256,0-0.512,0.098-0.707,0.293l-0.039,0.039c-0.391,0.39-0.391,1.024,0,1.414
				c0.195,0.195,0.451,0.293,0.707,0.293c0.256,0,0.512-0.098,0.707-0.293l0.039-0.039c0.391-0.391,0.391-1.024,0-1.414
				C49.81-81.914,49.554-82.011,49.299-82.011L49.299-82.011z M45.724-78.437c-0.256,0-0.512,0.098-0.707,0.293l-0.039,0.039
				c-0.39,0.391-0.39,1.024,0,1.414c0.195,0.195,0.451,0.293,0.707,0.293s0.512-0.098,0.707-0.293l0.039-0.039
				c0.391-0.391,0.391-1.024,0-1.414C46.236-78.339,45.98-78.437,45.724-78.437L45.724-78.437z M42.15-74.862
				c-0.254,0-0.508,0.096-0.703,0.288l-0.048,0.048c-0.386,0.391-0.385,1.021,0.004,1.41c0.195,0.195,0.451,0.293,0.707,0.293
				c0.256,0,0.512-0.098,0.707-0.293l0.039-0.039c0.391-0.391,0.391-1.024,0-1.414C42.661-74.765,42.405-74.862,42.15-74.862
				L42.15-74.862z M38.575-71.288c-0.256,0-0.512,0.098-0.707,0.293l-0.039,0.039c-0.39,0.391-0.39,1.024,0,1.414
				c0.195,0.195,0.451,0.293,0.707,0.293c0.256,0,0.512-0.098,0.707-0.293l0.039-0.039c0.391-0.391,0.391-1.024,0-1.414
				C39.087-71.19,38.831-71.288,38.575-71.288L38.575-71.288z M35.001-67.714c-0.256,0-0.512,0.098-0.707,0.293l-0.039,0.039
				c-0.39,0.39-0.39,1.024,0,1.414c0.195,0.195,0.451,0.293,0.707,0.293c0.256,0,0.512-0.098,0.707-0.293l0.039-0.039
				c0.39-0.391,0.39-1.024,0-1.414C35.513-67.616,35.257-67.714,35.001-67.714L35.001-67.714z M31.426-64.139
				c-0.254,0-0.508,0.096-0.702,0.288l-0.048,0.048c-0.386,0.391-0.384,1.021,0.005,1.41c0.195,0.195,0.451,0.293,0.707,0.293
				c0.256,0,0.512-0.098,0.707-0.293l0.039-0.039c0.391-0.39,0.391-1.024,0-1.414C31.938-64.041,31.682-64.139,31.426-64.139
				L31.426-64.139z M27.852-60.565c-0.256,0-0.512,0.098-0.707,0.293l-0.039,0.039c-0.391,0.39-0.391,1.024,0,1.414
				c0.195,0.195,0.451,0.293,0.707,0.293s0.512-0.098,0.707-0.293l0.039-0.039c0.39-0.39,0.39-1.024,0-1.414
				C28.364-60.467,28.108-60.565,27.852-60.565L27.852-60.565z M24.278-56.99c-0.256,0-0.512,0.098-0.707,0.293l-0.039,0.039
				c-0.39,0.39-0.39,1.024,0,1.414c0.195,0.195,0.451,0.293,0.707,0.293s0.512-0.098,0.707-0.293l0.039-0.039
				c0.39-0.39,0.39-1.024,0-1.414C24.789-56.893,24.533-56.99,24.278-56.99L24.278-56.99z M20.703-53.416
				c-0.254,0-0.508,0.096-0.702,0.288l-0.049,0.049c-0.386,0.391-0.384,1.021,0.005,1.409c0.195,0.195,0.451,0.293,0.707,0.293
				c0.256,0,0.512-0.098,0.707-0.293l0.039-0.039c0.39-0.391,0.39-1.024,0-1.414C21.215-53.318,20.959-53.416,20.703-53.416
				L20.703-53.416z M17.129-49.841c-0.256,0-0.512,0.098-0.707,0.293l-0.039,0.039c-0.391,0.391-0.391,1.024,0,1.414
				c0.195,0.195,0.451,0.293,0.707,0.293c0.256,0,0.512-0.098,0.707-0.293l0.039-0.039c0.39-0.39,0.39-1.024,0-1.414
				C17.64-49.744,17.385-49.841,17.129-49.841L17.129-49.841z M13.554-46.267c-0.254,0-0.507,0.096-0.702,0.288l-0.032,0.032
				c-0.007,0.007-0.012,0.012-0.012,0.012c-0.391,0.39-0.391,1.024,0,1.414c0.195,0.195,0.451,0.293,0.707,0.293
				c0.256,0,0.512-0.098,0.707-0.293l0.039-0.039c0.391-0.391,0.391-1.024,0-1.414C14.066-46.169,13.81-46.267,13.554-46.267
				L13.554-46.267z M9.98-42.693c-0.256,0-0.512,0.098-0.707,0.293l-0.039,0.039c-0.391,0.391-0.391,1.024,0,1.414
				c0.195,0.195,0.451,0.293,0.707,0.293c0.256,0,0.512-0.098,0.707-0.293l0.039-0.039c0.391-0.39,0.391-1.024,0-1.414
				C10.492-42.595,10.236-42.693,9.98-42.693L9.98-42.693z M6.405-39.118c-0.256,0-0.512,0.098-0.707,0.293l-0.039,0.039
				c-0.391,0.39-0.391,1.024,0,1.414c0.195,0.195,0.451,0.293,0.707,0.293c0.256,0,0.512-0.098,0.707-0.293l0.039-0.039
				c0.39-0.391,0.39-1.024,0-1.414C6.917-39.021,6.661-39.118,6.405-39.118L6.405-39.118z M2.831-35.544
				c-0.254,0-0.507,0.096-0.702,0.288L2.08-35.207c-0.385,0.391-0.384,1.02,0.005,1.409c0.195,0.195,0.451,0.293,0.707,0.293
				c0.256,0,0.512-0.098,0.707-0.293l0.039-0.039c0.391-0.39,0.391-1.024,0-1.414C3.343-35.446,3.087-35.544,2.831-35.544
				L2.831-35.544z M-0.743-31.969c-0.256,0-0.512,0.098-0.707,0.293l-0.039,0.039c-0.39,0.391-0.39,1.024,0,1.414
				c0.195,0.195,0.451,0.293,0.707,0.293s0.512-0.098,0.707-0.293l0.039-0.039c0.39-0.391,0.39-1.024,0-1.414
				C-0.232-31.872-0.488-31.969-0.743-31.969L-0.743-31.969z M-4.318-28.395c-0.256,0-0.512,0.098-0.707,0.293l-0.039,0.039
				c-0.391,0.391-0.391,1.024,0,1.414c0.195,0.195,0.451,0.293,0.707,0.293s0.512-0.098,0.707-0.293l0.039-0.039
				c0.391-0.391,0.391-1.024,0-1.414C-3.806-28.297-4.062-28.395-4.318-28.395L-4.318-28.395z M-7.892-24.82
				c-0.254,0-0.507,0.096-0.702,0.288l-0.05,0.05c-0.385,0.391-0.383,1.02,0.005,1.409c0.195,0.195,0.451,0.293,0.707,0.293
				c0.256,0,0.512-0.098,0.707-0.293l0.039-0.039c0.391-0.39,0.391-1.024,0-1.414C-7.38-24.723-7.636-24.82-7.892-24.82
				L-7.892-24.82z M-11.467-21.246c-0.256,0-0.512,0.098-0.707,0.293l-0.039,0.039c-0.391,0.39-0.391,1.024,0,1.414
				c0.195,0.195,0.451,0.293,0.707,0.293c0.256,0,0.512-0.098,0.707-0.293l0.039-0.039c0.391-0.391,0.391-1.024,0-1.414
				C-10.955-21.148-11.211-21.246-11.467-21.246L-11.467-21.246z M-15.041-17.672c-0.256,0-0.512,0.098-0.707,0.293l-0.039,0.039
				c-0.391,0.39-0.391,1.024,0,1.414c0.195,0.195,0.451,0.293,0.707,0.293s0.512-0.098,0.707-0.293l0.039-0.039
				c0.391-0.39,0.391-1.024,0-1.414C-14.529-17.574-14.785-17.672-15.041-17.672L-15.041-17.672z M-18.616-14.097
				c-0.253,0-0.507,0.096-0.702,0.287l-0.05,0.05c-0.385,0.391-0.383,1.02,0.005,1.409c0.195,0.195,0.451,0.293,0.707,0.293
				c0.256,0,0.512-0.098,0.707-0.293l0.039-0.039c0.391-0.391,0.391-1.024,0-1.414C-18.104-14-18.36-14.097-18.616-14.097
				L-18.616-14.097z M-22.19-10.523c-0.256,0-0.512,0.098-0.707,0.293l-0.039,0.039c-0.391,0.391-0.391,1.024,0,1.414
				c0.195,0.195,0.451,0.293,0.707,0.293c0.256,0,0.512-0.098,0.707-0.293l0.039-0.039c0.391-0.391,0.391-1.024,0-1.414
				C-21.678-10.425-21.934-10.523-22.19-10.523L-22.19-10.523z M-25.764-6.948c-0.256,0-0.512,0.098-0.707,0.293l-0.039,0.039
				c-0.39,0.391-0.39,1.024,0,1.414c0.195,0.195,0.451,0.293,0.707,0.293c0.256,0,0.512-0.098,0.707-0.293l0.039-0.039
				c0.39-0.391,0.39-1.024,0-1.414C-25.253-6.851-25.508-6.948-25.764-6.948L-25.764-6.948z M-29.339-3.374
				c-0.256,0-0.512,0.098-0.707,0.293l-0.039,0.039c-0.391,0.391-0.391,1.024,0,1.414c0.195,0.195,0.451,0.293,0.707,0.293
				s0.512-0.098,0.707-0.293l0.039-0.039c0.39-0.39,0.39-1.024,0-1.414C-28.827-3.276-29.083-3.374-29.339-3.374L-29.339-3.374z
				 M-32.913,0.201c-0.256,0-0.512,0.098-0.707,0.293l-0.039,0.039c-0.391,0.39-0.391,1.024,0,1.414
				c0.195,0.195,0.451,0.293,0.707,0.293c0.256,0,0.512-0.098,0.707-0.293l0.039-0.039c0.39-0.391,0.39-1.024,0-1.414
				C-32.402,0.298-32.657,0.201-32.913,0.201L-32.913,0.201z M-36.488,3.775c-0.256,0-0.512,0.098-0.707,0.293l-0.039,0.039
				c-0.39,0.391-0.39,1.024,0,1.414c0.195,0.195,0.451,0.293,0.707,0.293s0.512-0.098,0.707-0.293l0.039-0.039
				c0.391-0.391,0.391-1.024,0-1.414C-35.976,3.873-36.232,3.775-36.488,3.775L-36.488,3.775z M-40.062,7.349
				c-0.256,0-0.512,0.098-0.707,0.293l-0.039,0.039c-0.39,0.391-0.39,1.024,0,1.414c0.195,0.195,0.451,0.293,0.707,0.293
				c0.256,0,0.512-0.098,0.707-0.293l0.039-0.039c0.391-0.391,0.391-1.024,0-1.414C-39.55,7.447-39.806,7.349-40.062,7.349
				L-40.062,7.349z M-43.637,10.924c-0.256,0-0.512,0.098-0.707,0.293l-0.039,0.039c-0.391,0.391-0.391,1.024,0,1.414
				c0.195,0.195,0.451,0.293,0.707,0.293c0.256,0,0.512-0.098,0.707-0.293l0.039-0.039c0.39-0.391,0.39-1.024,0-1.414
				C-43.125,11.021-43.381,10.924-43.637,10.924L-43.637,10.924z M-46.818,14.554c-0.327,0-0.648,0.161-0.839,0.456
				c-0.006,0.009-0.011,0.017-0.016,0.025c-0.006,0.009-0.011,0.017-0.016,0.026c-0.297,0.465-0.16,1.083,0.306,1.379
				c0.167,0.106,0.353,0.156,0.536,0.156c0.331,0,0.655-0.164,0.846-0.463l0.026-0.04c0.297-0.466,0.161-1.085-0.304-1.383
				C-46.447,14.605-46.634,14.554-46.818,14.554L-46.818,14.554z M-48.641,18.877c-0.453,0-0.863,0.311-0.971,0.771
				c-0.004,0.016-0.008,0.033-0.011,0.049c-0.001,0.003-0.001,0.005-0.002,0.008c-0.124,0.538,0.212,1.074,0.75,1.197
				c0.075,0.017,0.15,0.025,0.224,0.025c0.456,0,0.869-0.314,0.975-0.777l0.011-0.046c0.124-0.538-0.211-1.076-0.749-1.201
				C-48.491,18.885-48.567,18.877-48.641,18.877L-48.641,18.877z M-48.922,23.566c-0.036,0-0.072,0.002-0.109,0.006
				c-0.546,0.059-0.941,0.547-0.886,1.093c0.001,0.013,0.003,0.027,0.004,0.04c0,0,0,0,0,0.001c0.001,0.011,0.002,0.021,0.004,0.032
				c0.061,0.506,0.49,0.88,0.99,0.88c0.037,0,0.075-0.002,0.112-0.006c0.549-0.061,0.945-0.556,0.885-1.105l-0.005-0.047
				C-47.984,23.946-48.418,23.566-48.922,23.566L-48.922,23.566z M-47.642,28.081c-0.145,0-0.292,0.032-0.432,0.099
				c-0.498,0.239-0.708,0.835-0.468,1.333c0.001,0.002,0.002,0.003,0.002,0.005c0.008,0.017,0.017,0.034,0.025,0.052
				c0.173,0.353,0.527,0.558,0.896,0.558c0.146,0,0.294-0.032,0.434-0.1c0.497-0.24,0.706-0.839,0.466-1.337l-0.021-0.043
				C-46.911,28.29-47.269,28.081-47.642,28.081L-47.642,28.081z M-44.918,31.905c-0.256,0-0.512,0.098-0.707,0.293
				c-0.39,0.391-0.39,1.024,0,1.414l0.039,0.039c0.195,0.195,0.451,0.293,0.707,0.293c0.256,0,0.512-0.098,0.707-0.293
				c0.391-0.39,0.391-1.024,0-1.414l-0.039-0.039C-44.407,32.002-44.662,31.905-44.918,31.905L-44.918,31.905z M-41.344,35.479
				c-0.256,0-0.512,0.098-0.707,0.293c-0.391,0.39-0.391,1.024,0,1.414l0.039,0.039c0.195,0.195,0.451,0.293,0.707,0.293
				c0.256,0,0.512-0.098,0.707-0.293c0.391-0.39,0.391-1.024,0-1.414l-0.039-0.039C-40.832,35.577-41.088,35.479-41.344,35.479
				L-41.344,35.479z M-37.77,39.053c-0.256,0-0.512,0.098-0.707,0.293c-0.39,0.391-0.39,1.024,0,1.414l0.039,0.039
				c0.195,0.195,0.451,0.293,0.707,0.293c0.256,0,0.512-0.098,0.707-0.293c0.391-0.39,0.391-1.024,0-1.414l-0.039-0.039
				C-37.258,39.151-37.514,39.053-37.77,39.053L-37.77,39.053z M-34.195,42.628c-0.256,0-0.512,0.098-0.707,0.293
				c-0.391,0.39-0.391,1.024,0,1.414l0.039,0.039c0.195,0.195,0.451,0.293,0.707,0.293c0.256,0,0.512-0.098,0.707-0.293
				c0.39-0.391,0.39-1.024,0-1.414l-0.039-0.039C-33.683,42.725-33.939,42.628-34.195,42.628L-34.195,42.628z M-30.621,46.202
				c-0.256,0-0.512,0.098-0.707,0.293c-0.39,0.39-0.39,1.024,0,1.414l0.039,0.039c0.195,0.195,0.451,0.293,0.707,0.293
				c0.256,0,0.512-0.098,0.707-0.293c0.391-0.39,0.391-1.024,0-1.414l-0.039-0.039C-30.109,46.3-30.365,46.202-30.621,46.202
				L-30.621,46.202z M-27.046,49.777c-0.256,0-0.512,0.098-0.707,0.293c-0.39,0.391-0.39,1.024,0,1.414l0.039,0.039
				c0.195,0.195,0.451,0.293,0.707,0.293c0.256,0,0.512-0.098,0.707-0.293c0.39-0.391,0.39-1.024,0-1.414l-0.039-0.039
				C-26.534,49.874-26.79,49.777-27.046,49.777L-27.046,49.777z M-23.472,53.351c-0.256,0-0.512,0.098-0.707,0.293
				c-0.391,0.391-0.391,1.024,0,1.414l0.039,0.039c0.195,0.195,0.451,0.293,0.707,0.293c0.256,0,0.512-0.098,0.707-0.293
				c0.39-0.39,0.39-1.024,0-1.414l-0.039-0.039C-22.96,53.449-23.216,53.351-23.472,53.351L-23.472,53.351z M-19.897,56.926
				c-0.256,0-0.512,0.098-0.707,0.293c-0.389,0.389-0.39,1.018-0.005,1.409l0.05,0.05c0.195,0.192,0.448,0.287,0.702,0.287
				c0.256,0,0.512-0.098,0.707-0.293c0.39-0.391,0.39-1.024,0-1.414l-0.039-0.039C-19.386,57.023-19.642,56.926-19.897,56.926
				L-19.897,56.926z M-16.323,60.5c-0.256,0-0.512,0.098-0.707,0.293c-0.391,0.39-0.391,1.024,0,1.414l0.039,0.039
				c0.195,0.195,0.451,0.293,0.707,0.293c0.256,0,0.512-0.098,0.707-0.293c0.391-0.39,0.391-1.024,0-1.414l-0.039-0.039
				C-15.811,60.598-16.067,60.5-16.323,60.5L-16.323,60.5z M-12.748,64.074c-0.256,0-0.512,0.098-0.707,0.293
				c-0.391,0.39-0.391,1.024,0,1.414l0.039,0.039c0.195,0.195,0.451,0.293,0.707,0.293c0.256,0,0.512-0.098,0.707-0.293
				c0.39-0.39,0.39-1.024,0-1.414l-0.039-0.039C-12.237,64.172-12.493,64.074-12.748,64.074L-12.748,64.074z M-9.174,67.649
				c-0.256,0-0.512,0.098-0.707,0.293c-0.389,0.389-0.391,1.018-0.005,1.409l0.05,0.05c0.195,0.192,0.448,0.288,0.702,0.288
				c0.256,0,0.512-0.098,0.707-0.293c0.391-0.391,0.391-1.024,0-1.414l-0.039-0.039C-8.662,67.746-8.918,67.649-9.174,67.649
				L-9.174,67.649z M-5.6,71.223c-0.256,0-0.512,0.098-0.707,0.293c-0.391,0.391-0.391,1.024,0,1.414l0.039,0.039
				c0.195,0.195,0.451,0.293,0.707,0.293c0.256,0,0.512-0.098,0.707-0.293c0.391-0.391,0.391-1.024,0-1.414l-0.039-0.039
				C-5.088,71.321-5.344,71.223-5.6,71.223L-5.6,71.223z M-2.025,74.798c-0.256,0-0.512,0.098-0.707,0.293
				c-0.391,0.391-0.391,1.024,0,1.414l0.039,0.039c0.195,0.195,0.451,0.293,0.707,0.293s0.512-0.098,0.707-0.293
				c0.391-0.391,0.391-1.024,0-1.414l-0.039-0.039C-1.513,74.895-1.769,74.798-2.025,74.798L-2.025,74.798z M1.549,78.372
				c-0.256,0-0.512,0.098-0.707,0.293c-0.391,0.39-0.391,1.024,0,1.414c0,0,0.004,0.004,0.01,0.01l0.034,0.034
				c0.195,0.192,0.448,0.288,0.702,0.288c0.256,0,0.512-0.098,0.707-0.293c0.391-0.391,0.391-1.024,0-1.414l-0.039-0.039
				C2.061,78.47,1.805,78.372,1.549,78.372L1.549,78.372z M5.123,81.947c-0.256,0-0.512,0.098-0.707,0.293
				c-0.391,0.391-0.391,1.024,0,1.414l0.039,0.039c0.195,0.195,0.451,0.293,0.707,0.293c0.256,0,0.512-0.098,0.707-0.293
				c0.391-0.39,0.391-1.024,0-1.414l-0.039-0.039C5.635,82.044,5.379,81.947,5.123,81.947L5.123,81.947z M8.698,85.521
				c-0.256,0-0.512,0.098-0.707,0.293c-0.391,0.39-0.391,1.024,0,1.414l0.039,0.039c0.195,0.195,0.451,0.293,0.707,0.293
				c0.256,0,0.512-0.098,0.707-0.293c0.391-0.391,0.391-1.024,0-1.414l-0.039-0.039C9.21,85.619,8.954,85.521,8.698,85.521
				L8.698,85.521z M12.273,89.095c-0.256,0-0.512,0.098-0.707,0.293c-0.391,0.391-0.391,1.024,0,1.414l0.039,0.039
				c0.195,0.195,0.451,0.293,0.707,0.293c0.256,0,0.512-0.098,0.707-0.293c0.391-0.391,0.391-1.024,0-1.414l-0.039-0.039
				C12.784,89.193,12.528,89.095,12.273,89.095L12.273,89.095z M15.847,92.67c-0.256,0-0.512,0.098-0.707,0.293
				c-0.391,0.391-0.391,1.024,0,1.414l0.039,0.039c0.195,0.195,0.451,0.293,0.707,0.293c0.256,0,0.512-0.098,0.707-0.293
				c0.39-0.391,0.39-1.024,0-1.414l-0.039-0.039C16.359,92.768,16.103,92.67,15.847,92.67L15.847,92.67z M19.421,96.244
				c-0.256,0-0.512,0.098-0.707,0.293c-0.389,0.389-0.39,1.018-0.005,1.409l0.049,0.049c0.195,0.192,0.448,0.288,0.702,0.288
				c0.256,0,0.512-0.098,0.707-0.293c0.391-0.391,0.391-1.024,0-1.414l-0.039-0.039C19.933,96.342,19.677,96.244,19.421,96.244
				L19.421,96.244z M22.996,99.819c-0.256,0-0.512,0.098-0.707,0.293c-0.391,0.39-0.391,1.024,0,1.414l0.039,0.039
				c0.195,0.195,0.451,0.293,0.707,0.293c0.256,0,0.512-0.098,0.707-0.293c0.391-0.39,0.391-1.024,0-1.414l-0.039-0.039
				C23.507,99.916,23.252,99.819,22.996,99.819L22.996,99.819z M26.57,103.393c-0.256,0-0.512,0.098-0.707,0.293
				c-0.391,0.391-0.391,1.024,0,1.414l0.039,0.039c0.195,0.195,0.451,0.293,0.707,0.293c0.256,0,0.512-0.098,0.707-0.293
				c0.39-0.391,0.39-1.024,0-1.414l-0.039-0.039C27.082,103.491,26.826,103.393,26.57,103.393L26.57,103.393z M30.145,106.967
				c-0.256,0-0.512,0.098-0.707,0.293c-0.389,0.389-0.391,1.019-0.005,1.41l0.048,0.048c0.195,0.192,0.448,0.288,0.702,0.288
				c0.256,0,0.512-0.098,0.707-0.293c0.391-0.391,0.391-1.024,0-1.414l-0.039-0.039C30.656,107.065,30.4,106.967,30.145,106.967
				L30.145,106.967z M33.719,110.542c-0.256,0-0.512,0.098-0.707,0.293c-0.39,0.391-0.39,1.024,0,1.414l0.039,0.039
				c0.195,0.195,0.451,0.293,0.707,0.293c0.256,0,0.512-0.098,0.707-0.293c0.39-0.391,0.39-1.024,0-1.414l-0.039-0.039
				C34.231,110.64,33.975,110.542,33.719,110.542L33.719,110.542z M37.293,114.116c-0.256,0-0.512,0.098-0.707,0.293
				c-0.391,0.39-0.391,1.024,0,1.414l0.039,0.039c0.195,0.195,0.451,0.293,0.707,0.293c0.256,0,0.512-0.098,0.707-0.293
				c0.391-0.39,0.391-1.024,0-1.414L38,114.409C37.805,114.214,37.549,114.116,37.293,114.116L37.293,114.116z M40.868,117.691
				c-0.256,0-0.512,0.098-0.707,0.293c-0.389,0.389-0.391,1.019-0.005,1.41l0.048,0.048c0.195,0.192,0.449,0.288,0.702,0.288
				c0.256,0,0.512-0.098,0.707-0.293c0.39-0.39,0.39-1.024,0-1.414l-0.039-0.039C41.38,117.788,41.124,117.691,40.868,117.691
				L40.868,117.691z M44.442,121.265c-0.256,0-0.512,0.098-0.707,0.293c-0.39,0.391-0.39,1.024,0,1.414l0.039,0.039
				c0.195,0.195,0.451,0.293,0.707,0.293c0.256,0,0.512-0.098,0.707-0.293c0.39-0.391,0.39-1.024,0-1.414l-0.039-0.039
				C44.954,121.363,44.698,121.265,44.442,121.265L44.442,121.265z M48.017,124.84c-0.256,0-0.512,0.098-0.707,0.293
				c-0.391,0.391-0.391,1.024,0,1.414l0.039,0.039c0.195,0.195,0.451,0.293,0.707,0.293c0.256,0,0.512-0.098,0.707-0.293
				c0.391-0.391,0.391-1.024,0-1.414l-0.039-0.039C48.528,124.937,48.273,124.84,48.017,124.84L48.017,124.84z M51.591,128.414
				c-0.256,0-0.512,0.098-0.707,0.293c-0.389,0.389-0.39,1.019-0.004,1.41l0.047,0.047c0.195,0.193,0.449,0.289,0.703,0.289
				c0.256,0,0.512-0.098,0.707-0.293c0.39-0.391,0.39-1.024,0-1.414l-0.039-0.039C52.103,128.512,51.847,128.414,51.591,128.414
				L51.591,128.414z M55.166,131.988c-0.256,0-0.512,0.098-0.707,0.293c-0.39,0.391-0.39,1.024,0,1.414l0.039,0.039
				c0.195,0.195,0.451,0.293,0.707,0.293c0.256,0,0.512-0.098,0.707-0.293c0.39-0.391,0.39-1.024,0-1.414l-0.039-0.039
				C55.677,132.086,55.421,131.988,55.166,131.988L55.166,131.988z M58.74,135.563c-0.256,0-0.512,0.098-0.707,0.293
				c-0.389,0.389-0.39,1.02-0.004,1.41l0.046,0.046c0.195,0.193,0.449,0.289,0.703,0.289c0.256,0,0.512-0.098,0.707-0.293
				c0.391-0.391,0.391-1.024,0-1.414l-0.039-0.039C59.252,135.661,58.996,135.563,58.74,135.563L58.74,135.563z M62.314,139.137
				c-0.256,0-0.512,0.098-0.707,0.293c-0.389,0.389-0.39,1.02-0.004,1.411l0.046,0.046c0.195,0.193,0.449,0.289,0.704,0.289
				c0.256,0,0.512-0.098,0.707-0.293c0.391-0.391,0.391-1.024,0-1.414l-0.039-0.039C62.826,139.235,62.57,139.137,62.314,139.137
				L62.314,139.137z M65.889,142.712c-0.256,0-0.512,0.098-0.707,0.293c-0.391,0.391-0.391,1.024,0,1.414l0.039,0.039
				c0.195,0.195,0.451,0.293,0.707,0.293c0.256,0,0.512-0.098,0.707-0.293c0.39-0.39,0.39-1.024,0-1.414l-0.039-0.039
				C66.401,142.809,66.145,142.712,65.889,142.712L65.889,142.712z M69.463,146.286c-0.256,0-0.512,0.098-0.707,0.293
				c-0.389,0.389-0.391,1.02-0.003,1.411l0.046,0.046c0.195,0.193,0.449,0.29,0.704,0.29c0.256,0,0.512-0.098,0.707-0.293
				c0.391-0.391,0.391-1.024,0-1.414l-0.039-0.039C69.975,146.384,69.719,146.286,69.463,146.286L69.463,146.286z M73.038,149.861
				c-0.256,0-0.512,0.098-0.707,0.293c-0.389,0.389-0.39,1.02-0.003,1.411l0.045,0.045c0.195,0.193,0.449,0.29,0.704,0.29
				c0.256,0,0.512-0.098,0.707-0.293c0.391-0.391,0.391-1.024,0-1.414l-0.039-0.039C73.549,149.958,73.294,149.861,73.038,149.861
				L73.038,149.861z M76.612,153.435c-0.256,0-0.512,0.098-0.707,0.293c-0.391,0.391-0.391,1.024,0,1.414l0.039,0.039
				c0.195,0.195,0.451,0.293,0.707,0.293c0.256,0,0.512-0.098,0.707-0.293c0.391-0.39,0.391-1.024,0-1.414l-0.039-0.039
				C77.124,153.533,76.868,153.435,76.612,153.435L76.612,153.435z M80.187,157.01c-0.256,0-0.512,0.098-0.707,0.293
				c-0.39,0.39-0.391,1.021-0.003,1.411l0.045,0.044c0.195,0.193,0.449,0.29,0.704,0.29c0.256,0,0.512-0.098,0.707-0.293
				c0.39-0.39,0.39-1.024,0-1.414l-0.039-0.039C80.698,157.107,80.442,157.01,80.187,157.01L80.187,157.01z M83.761,160.584
				c-0.256,0-0.512,0.098-0.707,0.293c-0.39,0.39-0.391,1.021-0.003,1.412l0.044,0.044c0.195,0.193,0.45,0.29,0.704,0.29
				c0.256,0,0.512-0.098,0.707-0.293c0.391-0.39,0.391-1.024,0-1.414l-0.039-0.039C84.273,160.682,84.017,160.584,83.761,160.584
				L83.761,160.584z M87.335,164.158c-0.256,0-0.512,0.098-0.707,0.293c-0.39,0.391-0.39,1.024,0,1.414l0.039,0.039
				c0.195,0.195,0.451,0.293,0.707,0.293s0.512-0.098,0.707-0.293c0.391-0.391,0.391-1.024,0-1.414l-0.039-0.039
				C87.847,164.256,87.591,164.158,87.335,164.158L87.335,164.158z M90.91,167.733c-0.256,0-0.512,0.098-0.707,0.293
				c-0.39,0.39-0.39,1.021-0.002,1.412l0.043,0.043c0.195,0.194,0.45,0.291,0.705,0.291c0.256,0,0.512-0.098,0.707-0.293
				c0.391-0.391,0.391-1.024,0-1.414l-0.039-0.039C91.422,167.83,91.166,167.733,90.91,167.733L90.91,167.733z M94.484,171.307
				c-0.256,0-0.512,0.098-0.707,0.293c-0.39,0.39-0.391,1.021-0.002,1.412l0.043,0.043c0.195,0.194,0.45,0.291,0.705,0.291
				c0.256,0,0.512-0.098,0.707-0.293c0.39-0.391,0.39-1.024,0-1.414l-0.039-0.039C94.996,171.405,94.74,171.307,94.484,171.307
				L94.484,171.307z M98.059,174.882c-0.256,0-0.512,0.098-0.707,0.293c-0.39,0.39-0.391,1.021-0.002,1.412l0.043,0.043
				c0.195,0.194,0.45,0.291,0.705,0.291c0.256,0,0.512-0.098,0.707-0.293c0.39-0.39,0.39-1.024,0-1.414l-0.039-0.039
				C98.57,174.979,98.314,174.882,98.059,174.882L98.059,174.882z M101.633,178.456c-0.256,0-0.512,0.098-0.707,0.293
				c-0.39,0.39-0.391,1.022-0.002,1.413l0.042,0.042c0.195,0.194,0.45,0.291,0.705,0.291c0.256,0,0.512-0.098,0.707-0.293
				c0.391-0.391,0.391-1.024,0-1.414l-0.039-0.039C102.145,178.554,101.889,178.456,101.633,178.456L101.633,178.456z
				 M105.207,182.031c-0.256,0-0.512,0.098-0.707,0.293c-0.39,0.39-0.391,1.022-0.002,1.413l0.042,0.042
				c0.195,0.194,0.45,0.291,0.705,0.291c0.256,0,0.512-0.098,0.707-0.293c0.391-0.391,0.391-1.024,0-1.414l-0.039-0.039
				C105.719,182.128,105.463,182.031,105.207,182.031L105.207,182.031z M108.782,185.605c-0.256,0-0.512,0.098-0.707,0.293
				c-0.39,0.39-0.39,1.022-0.002,1.413l0.042,0.042c0.195,0.194,0.45,0.291,0.706,0.291c0.256,0,0.512-0.098,0.707-0.293
				c0.391-0.391,0.391-1.024,0-1.414l-0.039-0.039C109.294,185.702,109.038,185.605,108.782,185.605L108.782,185.605z
				 M112.356,189.179c-0.256,0-0.512,0.098-0.707,0.293c-0.39,0.39-0.391,1.022-0.001,1.413l0.041,0.042
				c0.195,0.194,0.45,0.292,0.706,0.292c0.256,0,0.512-0.098,0.707-0.293c0.39-0.39,0.39-1.024,0-1.414l-0.039-0.039
				C112.868,189.277,112.612,189.179,112.356,189.179L112.356,189.179z M115.931,192.754c-0.256,0-0.512,0.098-0.707,0.293
				c-0.391,0.39-0.391,1.024,0,1.414c0,0,0.024,0.024,0.034,0.034l0.006,0.006c0.195,0.195,0.451,0.292,0.706,0.292
				c0.256,0,0.512-0.098,0.707-0.293c0.391-0.391,0.391-1.024,0-1.414l-0.039-0.039
				C116.443,192.851,116.187,192.754,115.931,192.754L115.931,192.754z M119.505,196.328c-0.256,0-0.512,0.098-0.707,0.293
				c-0.39,0.39-0.39,1.023-0.001,1.413l0.041,0.041c0.195,0.195,0.451,0.292,0.706,0.292c0.256,0,0.512-0.098,0.707-0.293
				c0.391-0.391,0.391-1.024,0-1.414l-0.039-0.039C120.017,196.426,119.761,196.328,119.505,196.328L119.505,196.328z
				 M123.079,199.903c-0.256,0-0.512,0.098-0.707,0.293c-0.39,0.39-0.391,1.023-0.001,1.413l0.041,0.04
				c0.195,0.195,0.451,0.292,0.706,0.292c0.256,0,0.512-0.098,0.707-0.293c0.391-0.391,0.391-1.024,0-1.414l-0.039-0.039
				C123.591,200,123.336,199.903,123.079,199.903L123.079,199.903z M126.654,203.477c-0.256,0-0.512,0.098-0.707,0.293
				c-0.391,0.391-0.391,1.024,0,1.414l0.039,0.039c0.195,0.195,0.451,0.293,0.707,0.293c0.256,0,0.512-0.098,0.707-0.293
				c0.39-0.391,0.39-1.024,0-1.414l-0.039-0.039C127.166,203.575,126.91,203.477,126.654,203.477L126.654,203.477z M130.229,207.051
				c-0.256,0-0.512,0.098-0.707,0.293c-0.39,0.39-0.391,1.023-0.001,1.414l0.04,0.04c0.195,0.195,0.451,0.292,0.707,0.292
				c0.256,0,0.512-0.098,0.707-0.293c0.391-0.39,0.391-1.024,0-1.414l-0.039-0.039C130.74,207.149,130.484,207.051,130.229,207.051
				L130.229,207.051z M133.803,210.626c-0.256,0-0.512,0.098-0.707,0.293c-0.39,0.39-0.391,1.023,0,1.414l0.04,0.039
				c0.195,0.195,0.451,0.293,0.707,0.293c0.256,0,0.512-0.098,0.707-0.293c0.391-0.391,0.391-1.024,0-1.414l-0.039-0.039
				C134.315,210.723,134.059,210.626,133.803,210.626L133.803,210.626z M137.377,214.2c-0.256,0-0.512,0.098-0.707,0.293
				c-0.39,0.391-0.391,1.023,0,1.414l0.039,0.039c0.195,0.195,0.451,0.293,0.707,0.293c0.256,0,0.512-0.098,0.707-0.293
				c0.391-0.391,0.391-1.024,0-1.414l-0.039-0.039C137.889,214.298,137.633,214.2,137.377,214.2L137.377,214.2z M140.952,217.775
				c-0.256,0-0.512,0.098-0.707,0.293c-0.391,0.391-0.391,1.024,0,1.414l0,0c0,0,0.001,0.001,0.002,0.002h0
				c0.001,0.001,0.002,0.003,0.004,0.004h0c0.002,0.002,0.004,0.004,0.006,0.006l0,0c0.002,0.002,0.005,0.005,0.007,0.007l0,0
				c0.002,0.002,0.005,0.005,0.007,0.007h0c0.002,0.002,0.004,0.004,0.006,0.006l0,0c0.002,0.002,0.003,0.003,0.004,0.004v0
				c0.001,0.001,0.002,0.002,0.002,0.002l0,0c0.195,0.195,0.451,0.293,0.707,0.293s0.512-0.098,0.707-0.293
				c0.391-0.391,0.391-1.024,0-1.414l-0.039-0.039C141.464,217.872,141.208,217.775,140.952,217.775L140.952,217.775z
				 M144.752,220.554c-0.369,0-0.724,0.205-0.899,0.557c-0.245,0.495-0.042,1.094,0.453,1.338c0.003,0.001,0.005,0.002,0.007,0.004
				c0.007,0.003,0.013,0.007,0.02,0.01c0.007,0.004,0.015,0.007,0.022,0.011c0.142,0.07,0.293,0.103,0.441,0.103
				c0.369,0,0.723-0.205,0.896-0.559c0.243-0.496,0.039-1.096-0.457-1.34l-0.043-0.021
				C145.052,220.587,144.901,220.554,144.752,220.554L144.752,220.554z M149.249,221.893c-0.5,0-0.932,0.374-0.994,0.882
				c-0.066,0.548,0.325,1.046,0.873,1.111c0.018,0.002,0.036,0.004,0.055,0.007c0.04,0.005,0.08,0.007,0.119,0.007
				c0.499,0,0.93-0.374,0.99-0.882c0.064-0.548-0.328-1.046-0.877-1.111l-0.047-0.006
				C149.328,221.895,149.288,221.893,149.249,221.893L149.249,221.893z M153.989,221.659c-0.072,0-0.144,0.008-0.217,0.024
				l-0.047,0.01c-0.539,0.119-0.881,0.653-0.763,1.192c0.102,0.467,0.515,0.785,0.974,0.785c0.069,0,0.138-0.007,0.208-0.022
				c0.017-0.004,0.033-0.007,0.05-0.011c0.004-0.001,0.008-0.002,0.012-0.003c0.539-0.119,0.879-0.653,0.759-1.192
				C154.863,221.977,154.448,221.659,153.989,221.659L153.989,221.659z M158.328,219.879c-0.182,0-0.365,0.049-0.53,0.153
				l-0.04,0.025c-0.468,0.293-0.611,0.91-0.319,1.379c0.189,0.304,0.515,0.471,0.848,0.471c0.181,0,0.364-0.049,0.529-0.152
				c0.004-0.002,0.008-0.005,0.012-0.007c0.014-0.009,0.028-0.018,0.042-0.026c0.463-0.295,0.602-0.907,0.309-1.373
				C158.987,220.045,158.661,219.879,158.328,219.879L158.328,219.879z M161.971,216.725c-0.256,0-0.512,0.098-0.707,0.293
				l-0.039,0.039c-0.391,0.391-0.391,1.024,0,1.414c0.195,0.195,0.451,0.293,0.707,0.293c0.256,0,0.512-0.098,0.707-0.293l0,0
				c0,0,0,0,0,0l0,0c0,0,0,0,0,0v0c0,0,0.001-0.001,0.001-0.001l0,0c0.001,0,0.001-0.001,0.002-0.002l0,0
				c0,0,0.001-0.001,0.001-0.001l0,0c0,0,0.001-0.001,0.001-0.001l0.001-0.001c0,0,0.001-0.001,0.001-0.001l0,0
				c0,0,0.001-0.001,0.001-0.001l0,0c0.001-0.001,0.002-0.002,0.003-0.003l0.001,0c0.001-0.001,0.002-0.002,0.003-0.003l0,0
				c0.001-0.001,0.001-0.001,0.002-0.001l0,0c0,0,0,0,0.001-0.001l0.002-0.002c0,0,0,0,0.001-0.001l0,0
				c0.001-0.001,0.001-0.001,0.002-0.001l0,0c0.001-0.001,0.002-0.002,0.003-0.003l0.001,0c0.001-0.001,0.002-0.002,0.003-0.003l0,0
				c0,0,0.001-0.001,0.001-0.001l0,0c0,0,0.001-0.001,0.001-0.001l0-0.001c0,0,0.001-0.001,0.001-0.001l0,0
				c0,0,0.001-0.001,0.001-0.001l0,0c0.001-0.001,0.001-0.001,0.002-0.002l0,0c0-0.001,0.001-0.001,0.001-0.001l0,0c0,0,0,0,0,0h0v0
				l0,0c0.391-0.391,0.391-1.024,0-1.414C162.483,216.823,162.227,216.725,161.971,216.725L161.971,216.725z M165.546,213.151
				c-0.256,0-0.512,0.098-0.707,0.293l-0.039,0.039c-0.391,0.391-0.391,1.024,0,1.414c0.195,0.195,0.451,0.293,0.707,0.293
				c0.256,0,0.512-0.098,0.707-0.293l0.039-0.039c0.39-0.391,0.39-1.024,0-1.414C166.057,213.248,165.801,213.151,165.546,213.151
				L165.546,213.151z M169.12,209.576c-0.256,0-0.512,0.098-0.707,0.293l-0.039,0.039c-0.39,0.391-0.39,1.024,0,1.414
				c0.195,0.195,0.451,0.293,0.707,0.293c0.256,0,0.512-0.097,0.707-0.293l0.04-0.04c0.39-0.391,0.39-1.023,0-1.414
				C169.632,209.674,169.376,209.576,169.12,209.576L169.12,209.576z M172.695,206.002c-0.256,0-0.512,0.098-0.707,0.293
				l-0.039,0.039c-0.39,0.391-0.39,1.024,0,1.414c0.195,0.195,0.451,0.293,0.707,0.293c0.256,0,0.511-0.098,0.707-0.292l0.04-0.04
				c0.39-0.391,0.39-1.023-0.001-1.414C173.206,206.099,172.95,206.002,172.695,206.002L172.695,206.002z M176.269,202.427
				c-0.256,0-0.512,0.098-0.707,0.293l-0.039,0.039c-0.391,0.391-0.391,1.024,0,1.414c0.195,0.195,0.451,0.293,0.707,0.293
				c0.256,0,0.511-0.097,0.706-0.292l0.04-0.04c0.39-0.391,0.389-1.023-0.001-1.413
				C176.781,202.525,176.525,202.427,176.269,202.427L176.269,202.427z M179.843,198.853c-0.256,0-0.512,0.098-0.707,0.293
				l-0.039,0.039c-0.391,0.391-0.391,1.024,0,1.414c0.195,0.195,0.451,0.293,0.707,0.293c0.256,0,0.511-0.097,0.706-0.292
				l0.041-0.041c0.39-0.391,0.389-1.023-0.001-1.413C180.355,198.951,180.099,198.853,179.843,198.853L179.843,198.853z
				 M183.418,195.279c-0.256,0-0.512,0.098-0.707,0.293l-0.039,0.039c-0.391,0.391-0.391,1.024,0,1.414
				c0.195,0.195,0.451,0.293,0.707,0.293c0.255,0,0.511-0.097,0.706-0.292l0.041-0.041c0.389-0.391,0.389-1.023-0.001-1.413
				C183.93,195.376,183.674,195.279,183.418,195.279L183.418,195.279z M186.992,191.704c-0.256,0-0.512,0.098-0.707,0.293
				l-0.039,0.039c-0.391,0.391-0.391,1.024,0,1.414c0.195,0.195,0.451,0.293,0.707,0.293c0.255,0,0.511-0.097,0.706-0.292
				l0.041-0.041c0.389-0.391,0.389-1.023-0.001-1.413C187.504,191.802,187.248,191.704,186.992,191.704L186.992,191.704z
				 M190.566,188.13c-0.256,0-0.512,0.098-0.707,0.293l-0.039,0.039c-0.39,0.391-0.39,1.024,0,1.414
				c0.195,0.195,0.451,0.293,0.707,0.293c0.255,0,0.511-0.097,0.706-0.292l0.042-0.042c0.389-0.391,0.389-1.023-0.001-1.413
				C191.078,188.227,190.822,188.13,190.566,188.13L190.566,188.13z M194.141,184.555c-0.256,0-0.512,0.098-0.707,0.293
				l-0.039,0.039c-0.391,0.391-0.391,1.024,0,1.414c0.195,0.195,0.451,0.293,0.707,0.293c0.255,0,0.51-0.097,0.706-0.291
				l0.042-0.042c0.389-0.391,0.388-1.023-0.001-1.413C194.653,184.653,194.397,184.555,194.141,184.555L194.141,184.555z
				 M197.715,180.981c-0.256,0-0.512,0.098-0.707,0.293l-0.039,0.039c-0.391,0.391-0.391,1.024,0,1.414
				c0.195,0.195,0.451,0.293,0.707,0.293s0.512-0.098,0.707-0.293l0.039-0.039c0.391-0.391,0.391-1.024,0-1.414
				C198.227,181.078,197.971,180.981,197.715,180.981L197.715,180.981z M201.29,177.406c-0.256,0-0.512,0.098-0.707,0.293
				l-0.039,0.039c-0.39,0.391-0.39,1.024,0,1.414c0.195,0.195,0.451,0.293,0.707,0.293c0.255,0,0.51-0.097,0.705-0.291l0.043-0.043
				c0.389-0.391,0.388-1.022-0.002-1.412C201.802,177.504,201.546,177.406,201.29,177.406L201.29,177.406z M204.864,173.832
				c-0.256,0-0.512,0.098-0.707,0.293l-0.039,0.039c-0.39,0.391-0.39,1.024,0,1.414c0.195,0.195,0.451,0.293,0.707,0.293
				c0.255,0,0.51-0.097,0.705-0.291l0.043-0.043c0.389-0.391,0.388-1.022-0.002-1.412
				C205.376,173.93,205.12,173.832,204.864,173.832L204.864,173.832z M208.439,170.258c-0.256,0-0.512,0.098-0.707,0.293
				l-0.039,0.039c-0.391,0.391-0.391,1.024,0,1.414c0.195,0.195,0.451,0.293,0.707,0.293c0.256,0,0.512-0.098,0.707-0.293
				l0.039-0.039c0.391-0.39,0.391-1.024,0-1.414C208.951,170.355,208.695,170.258,208.439,170.258L208.439,170.258z
				 M212.013,166.683c-0.256,0-0.512,0.098-0.707,0.293l-0.039,0.039c-0.391,0.391-0.391,1.024,0,1.414
				c0.195,0.195,0.451,0.293,0.707,0.293c0.255,0,0.51-0.097,0.705-0.29l0.044-0.044c0.388-0.391,0.387-1.022-0.002-1.412
				C212.525,166.781,212.269,166.683,212.013,166.683L212.013,166.683z M215.587,163.109c-0.256,0-0.512,0.098-0.707,0.293
				l-0.039,0.039c-0.391,0.391-0.391,1.024,0,1.414c0.195,0.195,0.451,0.293,0.707,0.293c0.255,0,0.51-0.097,0.705-0.29l0.044-0.044
				c0.388-0.391,0.387-1.022-0.003-1.412C216.099,163.206,215.843,163.109,215.587,163.109L215.587,163.109z M219.162,159.534
				c-0.256,0-0.512,0.098-0.707,0.293l-0.039,0.039c-0.39,0.391-0.39,1.024,0,1.414c0.195,0.195,0.451,0.293,0.707,0.293
				c0.256,0,0.512-0.098,0.707-0.293l0.039-0.039c0.391-0.391,0.391-1.024,0-1.414C219.674,159.632,219.418,159.534,219.162,159.534
				L219.162,159.534z M222.736,155.96c-0.256,0-0.512,0.098-0.707,0.293l-0.039,0.039c-0.391,0.391-0.391,1.024,0,1.414
				c0.195,0.195,0.451,0.293,0.707,0.293c0.255,0,0.509-0.097,0.704-0.29l0.045-0.045c0.388-0.391,0.387-1.022-0.003-1.411
				C223.248,156.057,222.992,155.96,222.736,155.96L222.736,155.96z M226.311,152.385c-0.256,0-0.512,0.098-0.707,0.293
				l-0.039,0.039c-0.391,0.391-0.391,1.024,0,1.414c0.195,0.195,0.451,0.293,0.707,0.293c0.255,0,0.509-0.097,0.704-0.29
				l0.045-0.045c0.387-0.391,0.386-1.022-0.003-1.411C226.823,152.483,226.567,152.385,226.311,152.385L226.311,152.385z
				 M229.885,148.811c-0.256,0-0.512,0.098-0.707,0.293l-0.039,0.039c-0.391,0.391-0.391,1.024,0,1.414
				c0.195,0.195,0.451,0.293,0.707,0.293s0.512-0.098,0.707-0.293l0.039-0.039c0.391-0.391,0.391-1.024,0-1.414
				C230.397,148.908,230.141,148.811,229.885,148.811L229.885,148.811z M233.46,145.236c-0.256,0-0.512,0.098-0.707,0.293
				l-0.039,0.039c-0.39,0.391-0.39,1.024,0,1.414c0.195,0.195,0.451,0.293,0.707,0.293c0.255,0,0.509-0.097,0.704-0.29l0.046-0.045
				c0.387-0.391,0.386-1.022-0.003-1.411C233.971,145.334,233.715,145.236,233.46,145.236L233.46,145.236z M237.034,141.662
				c-0.256,0-0.512,0.098-0.707,0.293l-0.039,0.039c-0.391,0.391-0.391,1.024,0,1.414c0.195,0.195,0.451,0.293,0.707,0.293
				c0.256,0,0.512-0.098,0.707-0.293l0.039-0.039c0.391-0.39,0.391-1.024,0-1.414C237.546,141.76,237.29,141.662,237.034,141.662
				L237.034,141.662z M240.609,138.088c-0.256,0-0.512,0.098-0.707,0.293l-0.039,0.039c-0.391,0.391-0.391,1.024,0,1.414
				c0.195,0.195,0.451,0.293,0.707,0.293c0.254,0,0.509-0.096,0.703-0.289l0.02-0.02c0.011-0.011,0.023-0.023,0.023-0.023
				c0.391-0.39,0.391-1.024,0-1.414C241.12,138.185,240.864,138.088,240.609,138.088L240.609,138.088z M244.183,134.513
				c-0.256,0-0.512,0.098-0.707,0.293l-0.039,0.039c-0.391,0.391-0.391,1.024,0,1.414c0.195,0.195,0.451,0.293,0.707,0.293
				c0.254,0,0.508-0.096,0.703-0.289l0.046-0.046c0.387-0.391,0.385-1.021-0.004-1.41
				C244.695,134.611,244.439,134.513,244.183,134.513L244.183,134.513z M247.757,130.939c-0.256,0-0.512,0.098-0.707,0.293
				l-0.039,0.039c-0.391,0.391-0.391,1.024,0,1.414c0.195,0.195,0.451,0.293,0.707,0.293c0.256,0,0.512-0.098,0.707-0.293
				l0.039-0.039c0.391-0.391,0.391-1.024,0-1.414C248.269,131.036,248.013,130.939,247.757,130.939L247.757,130.939z
				 M251.332,127.364c-0.256,0-0.512,0.098-0.707,0.293l-0.039,0.039c-0.391,0.391-0.391,1.024,0,1.414
				c0.195,0.195,0.451,0.293,0.707,0.293c0.254,0,0.508-0.096,0.703-0.289l0.047-0.047c0.386-0.391,0.385-1.021-0.004-1.41
				C251.844,127.462,251.588,127.364,251.332,127.364L251.332,127.364z M254.906,123.79c-0.256,0-0.512,0.098-0.707,0.293
				l-0.039,0.039c-0.391,0.391-0.391,1.024,0,1.414c0.195,0.195,0.451,0.293,0.707,0.293c0.254,0,0.508-0.096,0.703-0.289
				l0.048-0.048c0.386-0.391,0.385-1.021-0.004-1.41C255.418,123.888,255.162,123.79,254.906,123.79L254.906,123.79z
				 M258.481,120.215c-0.256,0-0.512,0.098-0.707,0.293l-0.039,0.039c-0.391,0.39-0.391,1.024,0,1.414
				c0.195,0.195,0.451,0.293,0.707,0.293c0.256,0,0.512-0.098,0.707-0.293l0.039-0.039c0.39-0.391,0.39-1.024,0-1.414
				C258.992,120.313,258.737,120.215,258.481,120.215L258.481,120.215z M262.055,116.641c-0.256,0-0.512,0.098-0.707,0.293
				l-0.039,0.039c-0.391,0.391-0.391,1.024,0,1.414c0.195,0.195,0.451,0.293,0.707,0.293c0.254,0,0.508-0.096,0.702-0.288
				l0.048-0.048c0.386-0.391,0.384-1.021-0.005-1.41C262.567,116.739,262.311,116.641,262.055,116.641L262.055,116.641z
				 M265.629,113.067c-0.256,0-0.512,0.098-0.707,0.293l-0.039,0.039c-0.391,0.391-0.391,1.024,0,1.414
				c0.195,0.195,0.451,0.293,0.707,0.293c0.254,0,0.508-0.096,0.702-0.288l0.048-0.048c0.386-0.391,0.384-1.021-0.005-1.41
				C266.141,113.164,265.885,113.067,265.629,113.067L265.629,113.067z M269.204,109.492c-0.256,0-0.512,0.098-0.707,0.293
				l-0.039,0.039c-0.39,0.391-0.39,1.024,0,1.414c0.195,0.195,0.451,0.293,0.707,0.293c0.256,0,0.512-0.098,0.707-0.293l0.039-0.039
				c0.391-0.391,0.391-1.024,0-1.414C269.716,109.59,269.46,109.492,269.204,109.492L269.204,109.492z M272.778,105.918
				c-0.256,0-0.512,0.098-0.707,0.293l-0.039,0.039c-0.39,0.39-0.39,1.024,0,1.414c0.195,0.195,0.451,0.293,0.707,0.293
				c0.254,0,0.508-0.096,0.702-0.288l0.048-0.048c0.386-0.391,0.384-1.021-0.005-1.41
				C273.29,106.015,273.034,105.918,272.778,105.918L272.778,105.918z M276.353,102.343c-0.256,0-0.512,0.098-0.707,0.293
				l-0.039,0.039c-0.391,0.39-0.391,1.024,0,1.414c0.195,0.195,0.451,0.293,0.707,0.293c0.256,0,0.512-0.098,0.707-0.293
				l0.039-0.039c0.39-0.391,0.39-1.024,0-1.414C276.865,102.441,276.609,102.343,276.353,102.343L276.353,102.343z M279.927,98.769
				c-0.256,0-0.512,0.098-0.707,0.293l-0.039,0.039c-0.391,0.391-0.391,1.024,0,1.414c0.195,0.195,0.451,0.293,0.707,0.293
				c0.256,0,0.512-0.098,0.707-0.293l0.039-0.039c0.391-0.39,0.391-1.024,0-1.414C280.439,98.867,280.183,98.769,279.927,98.769
				L279.927,98.769z M283.502,95.195c-0.256,0-0.512,0.098-0.707,0.293l-0.039,0.039c-0.391,0.391-0.391,1.024,0,1.414
				c0.195,0.195,0.451,0.293,0.707,0.293c0.254,0,0.508-0.096,0.702-0.288l0.049-0.049c0.386-0.391,0.384-1.02-0.005-1.409
				C284.013,95.292,283.758,95.195,283.502,95.195L283.502,95.195z M287.076,91.62c-0.256,0-0.512,0.098-0.707,0.293l-0.039,0.039
				c-0.39,0.391-0.39,1.024,0,1.414c0.195,0.195,0.451,0.293,0.707,0.293c0.256,0,0.512-0.098,0.707-0.293l0.039-0.039
				c0.391-0.391,0.391-1.024,0-1.414C287.588,91.718,287.332,91.62,287.076,91.62L287.076,91.62z M290.65,88.046
				c-0.256,0-0.512,0.098-0.707,0.293l-0.039,0.039c-0.391,0.39-0.391,1.024,0,1.414c0.195,0.195,0.451,0.293,0.707,0.293
				c0.256,0,0.512-0.098,0.707-0.293l0.039-0.039c0.39-0.391,0.39-1.024,0-1.414C291.162,88.143,290.906,88.046,290.65,88.046
				L290.65,88.046z M294.225,84.471c-0.256,0-0.512,0.098-0.707,0.293l-0.039,0.039c-0.391,0.39-0.391,1.024,0,1.414
				c0.195,0.195,0.451,0.293,0.707,0.293c0.254,0,0.507-0.096,0.702-0.288l0.049-0.049c0.385-0.391,0.384-1.02-0.005-1.409
				C294.737,84.569,294.481,84.471,294.225,84.471L294.225,84.471z M297.799,80.897c-0.256,0-0.512,0.098-0.707,0.293l-0.039,0.039
				c-0.391,0.391-0.391,1.024,0,1.414c0.195,0.195,0.451,0.293,0.707,0.293c0.256,0,0.512-0.098,0.707-0.293l0.039-0.039
				c0.391-0.39,0.391-1.024,0-1.414C298.311,80.994,298.055,80.897,297.799,80.897L297.799,80.897z M301.374,77.322
				c-0.256,0-0.512,0.098-0.707,0.293l-0.039,0.039c-0.39,0.391-0.39,1.024,0,1.414c0.195,0.195,0.451,0.293,0.707,0.293
				c0.256,0,0.512-0.098,0.707-0.293l0.039-0.039c0.391-0.391,0.391-1.024,0-1.414C301.885,77.42,301.63,77.322,301.374,77.322
				L301.374,77.322z M304.948,73.748c-0.256,0-0.512,0.098-0.707,0.293l-0.039,0.039c-0.39,0.39-0.39,1.024,0,1.414
				c0.195,0.195,0.451,0.293,0.707,0.293c0.254,0,0.507-0.096,0.702-0.288l0.049-0.049c0.385-0.391,0.384-1.02-0.005-1.409
				C305.46,73.846,305.204,73.748,304.948,73.748L304.948,73.748z M308.523,70.174c-0.256,0-0.512,0.098-0.707,0.293l-0.039,0.039
				c-0.391,0.391-0.391,1.024,0,1.414c0.195,0.195,0.451,0.293,0.707,0.293c0.256,0,0.512-0.098,0.707-0.293l0.039-0.039
				c0.391-0.391,0.391-1.024,0-1.414C309.034,70.271,308.779,70.174,308.523,70.174L308.523,70.174z M312.097,66.599
				c-0.256,0-0.512,0.098-0.707,0.293l-0.039,0.039c-0.391,0.391-0.391,1.024,0,1.414c0.195,0.195,0.451,0.293,0.707,0.293
				c0.256,0,0.512-0.098,0.707-0.293l0.039-0.039c0.391-0.39,0.391-1.024,0-1.414C312.609,66.697,312.353,66.599,312.097,66.599
				L312.097,66.599z M315.671,63.025c-0.256,0-0.512,0.098-0.707,0.293l-0.039,0.039c-0.391,0.391-0.391,1.024,0,1.414
				c0.195,0.195,0.451,0.293,0.707,0.293c0.256,0,0.512-0.098,0.707-0.293l0.039-0.039c0.391-0.39,0.391-1.024,0-1.414
				C316.183,63.122,315.927,63.025,315.671,63.025L315.671,63.025z M319.246,59.45c-0.256,0-0.512,0.098-0.707,0.293l-0.039,0.039
				c-0.39,0.391-0.39,1.024,0,1.414c0.195,0.195,0.451,0.293,0.707,0.293c0.256,0,0.512-0.098,0.707-0.293l0.039-0.039
				c0.391-0.39,0.391-1.024,0-1.414C319.758,59.548,319.502,59.45,319.246,59.45L319.246,59.45z M322.82,55.876
				c-0.256,0-0.512,0.098-0.707,0.293l-0.039,0.039c-0.391,0.391-0.391,1.024,0,1.414c0.195,0.195,0.451,0.293,0.707,0.293
				c0.256,0,0.512-0.098,0.707-0.293l0.039-0.039c0.39-0.39,0.39-1.024,0-1.414C323.332,55.973,323.076,55.876,322.82,55.876
				L322.82,55.876z M326.395,52.301c-0.256,0-0.512,0.098-0.707,0.293l-0.039,0.039c-0.391,0.39-0.391,1.024,0,1.414
				c0.195,0.195,0.451,0.293,0.707,0.293s0.512-0.098,0.707-0.293l0.039-0.039c0.391-0.39,0.391-1.024,0-1.414
				C326.906,52.399,326.651,52.301,326.395,52.301L326.395,52.301z M329.969,48.727c-0.256,0-0.512,0.098-0.707,0.293l-0.039,0.039
				c-0.391,0.39-0.391,1.024,0,1.414c0.195,0.195,0.451,0.293,0.707,0.293c0.256,0,0.512-0.098,0.707-0.293l0.039-0.039
				c0.391-0.391,0.391-1.024,0-1.414C330.481,48.825,330.225,48.727,329.969,48.727L329.969,48.727z M333.543,45.153
				c-0.256,0-0.512,0.098-0.707,0.293l-0.039,0.039c-0.39,0.39-0.39,1.024,0,1.414c0.195,0.195,0.451,0.293,0.707,0.293
				c0.256,0,0.512-0.098,0.707-0.293l0.039-0.039c0.391-0.39,0.391-1.024,0-1.414C334.055,45.25,333.799,45.153,333.543,45.153
				L333.543,45.153z M337.118,41.578c-0.256,0-0.512,0.098-0.707,0.293l-0.039,0.039c-0.39,0.39-0.39,1.024,0,1.414
				c0.195,0.195,0.451,0.293,0.707,0.293c0.256,0,0.512-0.098,0.707-0.293l0.039-0.039c0.391-0.391,0.391-1.024,0-1.414
				C337.63,41.676,337.374,41.578,337.118,41.578L337.118,41.578z M340.692,38.004c-0.256,0-0.512,0.098-0.707,0.293l-0.039,0.039
				c-0.391,0.391-0.391,1.024,0,1.414c0.195,0.195,0.451,0.293,0.707,0.293c0.256,0,0.512-0.098,0.707-0.293l0.039-0.039
				c0.391-0.39,0.391-1.024,0-1.414C341.204,38.101,340.948,38.004,340.692,38.004L340.692,38.004z M344.267,34.429
				c-0.256,0-0.512,0.098-0.707,0.293l-0.039,0.039c-0.391,0.39-0.391,1.024,0,1.414c0.195,0.195,0.451,0.293,0.707,0.293
				c0.253,0,0.507-0.096,0.701-0.287l0.044-0.044c0,0,0,0,0,0l0,0c0.001-0.001,0.001-0.001,0.001-0.001
				c0.391-0.39,0.391-1.024,0-1.414C344.779,34.527,344.523,34.429,344.267,34.429L344.267,34.429z M347.728,30.88
				c-0.288,0-0.575,0.124-0.773,0.363l-0.03,0.037c-0.352,0.426-0.293,1.057,0.132,1.409c0.187,0.155,0.413,0.23,0.637,0.23
				c0.284,0,0.565-0.121,0.763-0.354c0.016-0.02,0.032-0.039,0.048-0.058c0.345-0.425,0.283-1.05-0.141-1.399
				C348.178,30.955,347.952,30.88,347.728,30.88L347.728,30.88z M350.049,26.805c-0.41,0-0.794,0.253-0.942,0.66l-0.016,0.045
				c-0.189,0.519,0.079,1.094,0.598,1.283c0.113,0.041,0.229,0.061,0.343,0.061c0.408,0,0.791-0.252,0.938-0.658
				c0.004-0.012,0.009-0.024,0.013-0.036c0.001-0.002,0.002-0.004,0.002-0.007c0,0,0-0.001,0.001-0.001
				c0.002-0.005,0.003-0.009,0.005-0.014c0.184-0.517-0.084-1.087-0.602-1.273C350.277,26.824,350.162,26.805,350.049,26.805
				L350.049,26.805z M350.877,22.183c-0.548,0-0.996,0.442-1.002,0.991l0,0.048c-0.006,0.552,0.437,1.006,0.989,1.013
				c0.004,0,0.009,0,0.013,0c0.543,0,0.987-0.435,0.998-0.979c0-0.012,0-0.025,0.001-0.037c0-0.009,0-0.018,0-0.027
				c0.006-0.552-0.437-1.004-0.989-1.009C350.883,22.183,350.88,22.183,350.877,22.183L350.877,22.183z M350.134,17.545
				c-0.107,0-0.215,0.017-0.322,0.054c-0.523,0.178-0.803,0.746-0.626,1.269l0.015,0.045c0.141,0.417,0.531,0.681,0.949,0.681
				c0.106,0,0.213-0.017,0.319-0.052c0.523-0.176,0.804-0.743,0.628-1.266c-0.001-0.003-0.002-0.006-0.003-0.009
				c-0.001-0.003-0.002-0.006-0.003-0.009c0-0.001-0.001-0.002-0.001-0.003c-0.004-0.013-0.008-0.025-0.013-0.037
				C350.934,17.805,350.548,17.545,350.134,17.545L350.134,17.545z M347.887,13.428c-0.217,0-0.436,0.071-0.62,0.217
				c-0.433,0.343-0.506,0.973-0.163,1.406l0.03,0.037c0.198,0.25,0.491,0.38,0.787,0.38c0.217,0,0.436-0.07,0.619-0.215
				c0.434-0.342,0.508-0.97,0.165-1.403c-0.004-0.005-0.008-0.01-0.011-0.014c-0.002-0.003-0.004-0.005-0.006-0.008
				c-0.001-0.002-0.003-0.003-0.004-0.005c-0.001-0.002-0.003-0.003-0.004-0.005c-0.003-0.004-0.005-0.007-0.008-0.011
				C348.473,13.558,348.181,13.428,347.887,13.428L347.887,13.428z M344.46,9.874c-0.256,0-0.512,0.098-0.707,0.293
				c-0.391,0.391-0.391,1.024,0,1.414l0.039,0.039c0.195,0.195,0.451,0.293,0.707,0.293c0.256,0,0.512-0.098,0.707-0.293
				c0.391-0.391,0.391-1.024,0-1.414l-0.039-0.039C344.972,9.972,344.716,9.874,344.46,9.874L344.46,9.874z M340.886,6.3
				c-0.256,0-0.512,0.098-0.707,0.293c-0.391,0.391-0.391,1.024,0,1.414l0.039,0.039c0.195,0.195,0.451,0.293,0.707,0.293
				c0.256,0,0.512-0.098,0.707-0.293c0.391-0.391,0.391-1.024,0-1.414l-0.039-0.039C341.397,6.397,341.142,6.3,340.886,6.3
				L340.886,6.3z M337.311,2.725c-0.256,0-0.512,0.098-0.707,0.293c-0.391,0.39-0.391,1.024,0,1.414l0.039,0.039
				c0.195,0.195,0.451,0.293,0.707,0.293c0.256,0,0.512-0.098,0.707-0.293c0.391-0.391,0.391-1.024,0-1.414l-0.039-0.039
				C337.823,2.823,337.567,2.725,337.311,2.725L337.311,2.725z M333.737-0.849c-0.256,0-0.512,0.098-0.707,0.293
				c-0.391,0.39-0.391,1.024,0,1.414l0.039,0.039c0.195,0.195,0.451,0.293,0.707,0.293s0.512-0.098,0.707-0.293
				c0.391-0.391,0.391-1.024,0-1.414l-0.039-0.039C334.249-0.752,333.993-0.849,333.737-0.849L333.737-0.849z M330.162-4.424
				c-0.256,0-0.512,0.098-0.707,0.293c-0.391,0.391-0.391,1.024,0,1.414l0.039,0.039c0.195,0.195,0.451,0.293,0.707,0.293
				c0.256,0,0.512-0.098,0.707-0.293c0.391-0.39,0.391-1.024,0-1.414l-0.039-0.039C330.674-4.326,330.418-4.424,330.162-4.424
				L330.162-4.424z M326.588-7.998c-0.256,0-0.512,0.098-0.707,0.293c-0.391,0.391-0.391,1.024,0,1.414l0.039,0.039
				c0.195,0.195,0.451,0.293,0.707,0.293c0.256,0,0.512-0.098,0.707-0.293c0.391-0.391,0.391-1.024,0-1.414l-0.039-0.039
				C327.1-7.9,326.844-7.998,326.588-7.998L326.588-7.998z M323.013-11.572c-0.256,0-0.512,0.098-0.707,0.293
				c-0.391,0.391-0.391,1.024,0,1.414l0.039,0.039c0.195,0.195,0.451,0.293,0.707,0.293c0.256,0,0.512-0.098,0.707-0.293
				c0.391-0.391,0.391-1.024,0-1.414l-0.039-0.039C323.525-11.475,323.269-11.572,323.013-11.572L323.013-11.572z M319.439-15.147
				c-0.256,0-0.512,0.098-0.707,0.293c-0.391,0.391-0.391,1.024,0,1.414l0.039,0.039c0.195,0.195,0.451,0.293,0.707,0.293
				c0.256,0,0.512-0.098,0.707-0.293c0.391-0.391,0.391-1.024,0-1.414l-0.039-0.039C319.951-15.049,319.695-15.147,319.439-15.147
				L319.439-15.147z M315.865-18.721c-0.256,0-0.512,0.098-0.707,0.293c-0.391,0.39-0.391,1.024,0,1.414l0.039,0.039
				c0.195,0.195,0.451,0.293,0.707,0.293c0.256,0,0.512-0.098,0.707-0.293c0.391-0.391,0.391-1.024,0-1.414l-0.039-0.039
				C316.376-18.624,316.121-18.721,315.865-18.721L315.865-18.721z M312.29-22.296c-0.256,0-0.512,0.098-0.707,0.293
				c-0.391,0.39-0.391,1.024,0,1.414l0.039,0.039c0.195,0.195,0.451,0.293,0.707,0.293c0.256,0,0.512-0.098,0.707-0.293
				c0.391-0.391,0.391-1.024,0-1.414l-0.039-0.039C312.802-22.198,312.546-22.296,312.29-22.296L312.29-22.296z M308.716-25.87
				c-0.256,0-0.512,0.098-0.707,0.293c-0.391,0.391-0.391,1.024,0,1.414l0.039,0.039c0.195,0.195,0.451,0.293,0.707,0.293
				c0.256,0,0.512-0.098,0.707-0.293c0.389-0.389,0.391-1.018,0.005-1.409l-0.036-0.036c-0.005-0.005-0.009-0.008-0.009-0.008
				C309.228-25.772,308.972-25.87,308.716-25.87L308.716-25.87z M305.141-29.445c-0.256,0-0.512,0.098-0.707,0.293
				c-0.391,0.39-0.391,1.024,0,1.414l0.039,0.039c0.195,0.195,0.451,0.293,0.707,0.293c0.256,0,0.512-0.098,0.707-0.293
				c0.391-0.39,0.391-1.024,0-1.414l-0.039-0.039C305.653-29.347,305.397-29.445,305.141-29.445L305.141-29.445z M301.567-33.019
				c-0.256,0-0.512,0.098-0.707,0.293c-0.391,0.39-0.391,1.024,0,1.414l0.039,0.039c0.195,0.195,0.451,0.293,0.707,0.293
				s0.512-0.098,0.707-0.293c0.391-0.391,0.391-1.024,0-1.414l-0.039-0.039C302.079-32.921,301.823-33.019,301.567-33.019
				L301.567-33.019z M297.992-36.593c-0.256,0-0.512,0.098-0.707,0.293c-0.391,0.391-0.391,1.024,0,1.414l0.039,0.039
				c0.195,0.195,0.451,0.293,0.707,0.293c0.256,0,0.512-0.098,0.707-0.293c0.389-0.389,0.391-1.018,0.005-1.409l-0.049-0.049
				C298.5-36.498,298.246-36.593,297.992-36.593L297.992-36.593z M294.418-40.168c-0.256,0-0.512,0.098-0.707,0.293
				c-0.391,0.39-0.391,1.024,0,1.414l0.039,0.039c0.195,0.195,0.451,0.293,0.707,0.293c0.256,0,0.512-0.098,0.707-0.293
				c0.391-0.391,0.391-1.024,0-1.414l-0.039-0.039C294.93-40.07,294.674-40.168,294.418-40.168L294.418-40.168z M290.844-43.742
				c-0.256,0-0.512,0.098-0.707,0.293c-0.391,0.391-0.391,1.024,0,1.414l0.039,0.039c0.195,0.195,0.451,0.293,0.707,0.293
				c0.256,0,0.512-0.098,0.707-0.293c0.391-0.39,0.391-1.024,0-1.414l-0.039-0.039C291.355-43.645,291.099-43.742,290.844-43.742
				L290.844-43.742z M287.269-47.317c-0.256,0-0.512,0.098-0.707,0.293c-0.391,0.39-0.391,1.024,0,1.414l0.039,0.039
				c0.195,0.195,0.451,0.293,0.707,0.293c0.256,0,0.512-0.098,0.707-0.293c0.389-0.389,0.391-1.018,0.005-1.409l-0.049-0.049
				C287.777-47.221,287.523-47.317,287.269-47.317L287.269-47.317z M283.695-50.891c-0.256,0-0.512,0.098-0.707,0.293
				c-0.391,0.391-0.391,1.024,0,1.414l0.039,0.039c0.195,0.195,0.451,0.293,0.707,0.293c0.256,0,0.512-0.098,0.707-0.293
				c0.391-0.391,0.391-1.024,0-1.414l-0.039-0.039C284.207-50.793,283.951-50.891,283.695-50.891L283.695-50.891z M280.12-54.466
				c-0.256,0-0.512,0.098-0.707,0.293c-0.391,0.39-0.391,1.024,0,1.414l0.039,0.039c0.195,0.195,0.451,0.293,0.707,0.293
				c0.256,0,0.512-0.098,0.707-0.293c0.391-0.39,0.391-1.024,0-1.414l-0.039-0.039C280.632-54.368,280.376-54.466,280.12-54.466
				L280.12-54.466z M276.546-58.04c-0.256,0-0.512,0.098-0.707,0.293c-0.391,0.39-0.391,1.024,0,1.414l0.039,0.039
				c0.195,0.195,0.451,0.293,0.707,0.293c0.256,0,0.512-0.098,0.707-0.293c0.389-0.389,0.391-1.019,0.005-1.409l-0.048-0.049
				C277.053-57.944,276.8-58.04,276.546-58.04L276.546-58.04z M272.971-61.614c-0.256,0-0.512,0.098-0.707,0.293
				c-0.39,0.39-0.39,1.024,0,1.414l0.039,0.039c0.195,0.195,0.451,0.293,0.707,0.293c0.256,0,0.512-0.098,0.707-0.293
				c0.391-0.391,0.391-1.024,0-1.414l-0.039-0.039C273.483-61.517,273.227-61.614,272.971-61.614L272.971-61.614z M269.397-65.189
				c-0.256,0-0.512,0.098-0.707,0.293c-0.391,0.391-0.391,1.024,0,1.414l0.039,0.039c0.195,0.195,0.451,0.293,0.707,0.293
				c0.256,0,0.512-0.098,0.707-0.293c0.389-0.389,0.391-1.019,0.005-1.41l-0.027-0.027c-0.009-0.009-0.017-0.017-0.017-0.017
				C269.909-65.091,269.653-65.189,269.397-65.189L269.397-65.189z M265.823-68.763c-0.256,0-0.512,0.098-0.707,0.293
				c-0.391,0.391-0.391,1.024,0,1.414l0.039,0.039c0.195,0.195,0.451,0.293,0.707,0.293c0.256,0,0.512-0.098,0.707-0.293
				c0.389-0.389,0.391-1.019,0.005-1.41l-0.048-0.048C266.33-68.667,266.077-68.763,265.823-68.763L265.823-68.763z M262.248-72.338
				c-0.256,0-0.512,0.098-0.707,0.293c-0.391,0.391-0.391,1.024,0,1.414l0.039,0.039c0.195,0.195,0.451,0.293,0.707,0.293
				c0.256,0,0.512-0.098,0.707-0.293c0.391-0.391,0.391-1.024,0-1.414l-0.039-0.039C262.76-72.24,262.504-72.338,262.248-72.338
				L262.248-72.338z M258.674-75.912c-0.256,0-0.512,0.098-0.707,0.293c-0.391,0.391-0.391,1.024,0,1.414l0.039,0.039
				c0.195,0.195,0.451,0.293,0.707,0.293c0.256,0,0.512-0.098,0.707-0.293c0.389-0.389,0.391-1.019,0.004-1.41l-0.048-0.048
				C259.182-75.816,258.928-75.912,258.674-75.912L258.674-75.912z M255.099-79.487c-0.256,0-0.512,0.098-0.707,0.293
				c-0.391,0.391-0.391,1.024,0,1.414l0.039,0.039c0.195,0.195,0.451,0.293,0.707,0.293c0.256,0,0.512-0.098,0.707-0.293
				c0.389-0.389,0.391-1.019,0.004-1.41l-0.047-0.048C255.607-79.39,255.353-79.487,255.099-79.487L255.099-79.487z M251.525-83.061
				c-0.256,0-0.512,0.098-0.707,0.293c-0.39,0.39-0.39,1.024,0,1.414l0.039,0.039c0.195,0.195,0.451,0.293,0.707,0.293
				c0.256,0,0.512-0.098,0.707-0.293c0.391-0.39,0.391-1.024,0-1.414l-0.039-0.039C252.037-82.963,251.781-83.061,251.525-83.061
				L251.525-83.061z M247.951-86.635c-0.256,0-0.512,0.098-0.707,0.293c-0.391,0.39-0.391,1.024,0,1.414l0.039,0.039
				c0.195,0.195,0.451,0.293,0.707,0.293c0.256,0,0.512-0.098,0.707-0.293c0.389-0.389,0.391-1.019,0.004-1.41l-0.047-0.047
				C248.459-86.539,248.205-86.635,247.951-86.635L247.951-86.635z M244.376-90.21c-0.256,0-0.512,0.098-0.707,0.293
				c-0.391,0.391-0.391,1.024,0,1.414l0.039,0.039c0.195,0.195,0.451,0.293,0.707,0.293c0.256,0,0.512-0.098,0.707-0.293
				c0.391-0.391,0.391-1.024,0-1.414c0,0-0.012-0.012-0.022-0.022l-0.021-0.021C244.885-90.114,244.63-90.21,244.376-90.21
				L244.376-90.21z M240.802-93.784c-0.256,0-0.512,0.098-0.707,0.293c-0.391,0.391-0.391,1.024,0,1.414l0.039,0.039
				c0.195,0.195,0.451,0.293,0.707,0.293c0.256,0,0.512-0.098,0.707-0.293c0.391-0.391,0.391-1.024,0-1.414l-0.039-0.039
				C241.314-93.687,241.058-93.784,240.802-93.784L240.802-93.784z M237.227-97.359c-0.256,0-0.512,0.098-0.707,0.293
				c-0.391,0.391-0.391,1.024,0,1.414l0.039,0.039c0.195,0.195,0.451,0.293,0.707,0.293s0.512-0.098,0.707-0.293
				c0.389-0.389,0.39-1.02,0.003-1.411l-0.046-0.046C237.736-97.262,237.482-97.359,237.227-97.359L237.227-97.359z
				 M233.653-100.933c-0.256,0-0.512,0.098-0.707,0.293c-0.39,0.39-0.39,1.024,0,1.414l0.039,0.039
				c0.195,0.195,0.451,0.293,0.707,0.293c0.256,0,0.512-0.098,0.707-0.293c0.391-0.39,0.391-1.024,0-1.414l-0.039-0.039
				C234.165-100.836,233.909-100.933,233.653-100.933L233.653-100.933z M230.078-104.507c-0.256,0-0.512,0.098-0.707,0.293
				c-0.391,0.391-0.391,1.024,0,1.414l0.039,0.039c0.195,0.195,0.451,0.293,0.707,0.293c0.256,0,0.512-0.098,0.707-0.293
				c0.389-0.39,0.391-1.02,0.003-1.411l-0.017-0.017c-0.011-0.011-0.025-0.025-0.025-0.025
				C230.59-104.41,230.334-104.507,230.078-104.507L230.078-104.507z M226.504-108.082c-0.256,0-0.512,0.098-0.707,0.293
				c-0.391,0.391-0.391,1.024,0,1.414l0.039,0.039c0.195,0.195,0.451,0.293,0.707,0.293c0.256,0,0.512-0.098,0.707-0.293
				c0.389-0.389,0.391-1.02,0.003-1.411l-0.045-0.045C227.013-107.985,226.758-108.082,226.504-108.082L226.504-108.082z
				 M222.93-111.656c-0.256,0-0.512,0.098-0.707,0.293c-0.391,0.39-0.391,1.024,0,1.414l0.039,0.039
				c0.195,0.195,0.451,0.293,0.707,0.293c0.256,0,0.512-0.098,0.707-0.293c0.391-0.39,0.391-1.024,0-1.414l-0.039-0.039
				C223.441-111.559,223.186-111.656,222.93-111.656L222.93-111.656z M219.355-115.231c-0.256,0-0.512,0.098-0.707,0.293
				c-0.39,0.391-0.39,1.024,0,1.414l0.039,0.039c0.195,0.195,0.451,0.293,0.707,0.293c0.256,0,0.512-0.098,0.707-0.293
				c0.39-0.39,0.39-1.021,0.003-1.411l-0.044-0.044C219.865-115.134,219.61-115.231,219.355-115.231L219.355-115.231z
				 M215.781-118.805c-0.256,0-0.512,0.098-0.707,0.293c-0.39,0.391-0.39,1.024,0,1.414l0.039,0.039
				c0.195,0.195,0.451,0.293,0.707,0.293c0.256,0,0.512-0.098,0.707-0.293c0.39-0.39,0.391-1.021,0.003-1.412l-0.044-0.044
				C216.29-118.708,216.036-118.805,215.781-118.805L215.781-118.805z M212.206-122.38c-0.256,0-0.512,0.098-0.707,0.293
				c-0.391,0.391-0.391,1.024,0,1.414l0.039,0.039c0.195,0.195,0.451,0.293,0.707,0.293c0.256,0,0.512-0.098,0.707-0.293
				c0.391-0.391,0.391-1.024,0-1.414l-0.039-0.039C212.718-122.282,212.462-122.38,212.206-122.38L212.206-122.38z M208.632-125.954
				c-0.256,0-0.512,0.098-0.707,0.293c-0.391,0.39-0.391,1.024,0,1.414l0.039,0.039c0.195,0.195,0.451,0.293,0.707,0.293
				s0.512-0.098,0.707-0.293c0.39-0.39,0.391-1.021,0.002-1.412l-0.043-0.043C209.142-125.857,208.887-125.954,208.632-125.954
				L208.632-125.954z M205.057-129.529c-0.256,0-0.512,0.098-0.707,0.293c-0.391,0.391-0.391,1.024,0,1.414l0.039,0.039
				c0.195,0.195,0.451,0.293,0.707,0.293s0.512-0.098,0.707-0.293c0.39-0.39,0.39-1.022,0.002-1.412l-0.043-0.043
				C205.567-129.432,205.312-129.529,205.057-129.529L205.057-129.529z M201.483-133.103c-0.256,0-0.512,0.098-0.707,0.293
				c-0.39,0.391-0.39,1.024,0,1.414l0.039,0.039c0.195,0.195,0.451,0.293,0.707,0.293c0.256,0,0.512-0.098,0.707-0.293
				c0.391-0.391,0.391-1.024,0-1.414l-0.039-0.039C201.995-133.005,201.739-133.103,201.483-133.103L201.483-133.103z
				 M197.909-136.677c-0.256,0-0.512,0.098-0.707,0.293c-0.391,0.391-0.391,1.024,0,1.414l0.039,0.039
				c0.195,0.195,0.451,0.293,0.707,0.293c0.256,0,0.512-0.098,0.707-0.293c0.39-0.39,0.391-1.022,0.002-1.413l-0.042-0.042
				C198.419-136.58,198.164-136.677,197.909-136.677L197.909-136.677z M194.334-140.252c-0.256,0-0.512,0.098-0.707,0.293
				c-0.391,0.391-0.391,1.024,0,1.414l0.039,0.039c0.195,0.195,0.451,0.293,0.707,0.293c0.256,0,0.512-0.098,0.707-0.293
				c0.39-0.39,0.391-1.022,0.002-1.413l-0.042-0.042C194.845-140.155,194.589-140.252,194.334-140.252L194.334-140.252z
				 M190.76-143.826c-0.256,0-0.512,0.098-0.707,0.293c-0.391,0.391-0.391,1.024,0,1.414l0.039,0.039
				c0.195,0.195,0.451,0.293,0.707,0.293c0.256,0,0.512-0.098,0.707-0.293c0.39-0.39,0.39-1.022,0.001-1.413l-0.007-0.008
				c-0.011-0.011-0.033-0.033-0.033-0.033C191.271-143.729,191.016-143.826,190.76-143.826L190.76-143.826z M187.185-147.401
				c-0.256,0-0.512,0.098-0.707,0.293c-0.39,0.391-0.39,1.024,0,1.414l0.039,0.039c0.195,0.195,0.451,0.293,0.707,0.293
				c0.256,0,0.512-0.098,0.707-0.293c0.39-0.39,0.39-1.022,0.001-1.413l-0.041-0.041
				C187.696-147.303,187.441-147.401,187.185-147.401L187.185-147.401z M183.611-150.975c-0.256,0-0.512,0.098-0.707,0.293
				c-0.391,0.391-0.391,1.024,0,1.414l0.039,0.039c0.195,0.195,0.451,0.293,0.707,0.293c0.256,0,0.512-0.098,0.707-0.293
				c0.39-0.39,0.391-1.023,0.001-1.413l-0.041-0.041C184.122-150.878,183.866-150.975,183.611-150.975L183.611-150.975z
				 M180.036-154.549c-0.256,0-0.512,0.098-0.707,0.293c-0.391,0.391-0.391,1.024,0,1.414l0.039,0.039
				c0.195,0.195,0.451,0.293,0.707,0.293s0.512-0.098,0.707-0.293c0.39-0.39,0.39-1.023,0.001-1.413l-0.041-0.041
				C180.548-154.452,180.292-154.549,180.036-154.549L180.036-154.549z M176.462-158.124c-0.256,0-0.512,0.098-0.707,0.293
				c-0.391,0.391-0.391,1.024,0,1.414l0.039,0.039c0.195,0.195,0.451,0.293,0.707,0.293s0.512-0.098,0.707-0.293
				c0.39-0.39,0.391-1.023,0.001-1.413l-0.04-0.04C176.973-158.026,176.718-158.124,176.462-158.124L176.462-158.124z
				 M172.888-161.698c-0.256,0-0.512,0.098-0.707,0.293c-0.391,0.391-0.391,1.024,0,1.414l0.039,0.039
				c0.195,0.195,0.451,0.293,0.707,0.293s0.512-0.098,0.707-0.293c0.39-0.39,0.39-1.023,0.001-1.414l-0.04-0.04
				C173.399-161.601,173.143-161.698,172.888-161.698L172.888-161.698z M169.313-165.273c-0.256,0-0.512,0.098-0.707,0.293
				c-0.391,0.391-0.391,1.024,0,1.414l0.039,0.039c0.195,0.195,0.451,0.293,0.707,0.293c0.256,0,0.512-0.098,0.707-0.293
				c0.39-0.39,0.39-1.023,0-1.414l-0.04-0.04C169.825-165.175,169.569-165.273,169.313-165.273L169.313-165.273z M165.739-168.847
				c-0.256,0-0.512,0.098-0.707,0.293c-0.391,0.39-0.391,1.024,0,1.414l0.039,0.039c0.195,0.195,0.451,0.293,0.707,0.293
				c0.256,0,0.512-0.098,0.707-0.293c0.391-0.391,0.391-1.023,0-1.414l-0.039-0.039C166.25-168.75,165.995-168.847,165.739-168.847
				L165.739-168.847z M162.164-172.422c-0.256,0-0.512,0.098-0.707,0.293c-0.391,0.391-0.391,1.024,0,1.414l0.039,0.039
				c0.195,0.195,0.451,0.293,0.707,0.293s0.512-0.098,0.707-0.293c0.391-0.391,0.391-1.024,0-1.414v0h0v0c0,0,0,0,0,0l0,0
				c0,0,0,0,0,0l0,0c0,0,0,0-0.001-0.001l0,0c0,0,0,0,0,0l0,0c0-0.001-0.001-0.001-0.001-0.001l0,0c0,0-0.001-0.001-0.001-0.001l0,0
				c0,0-0.001-0.001-0.001-0.001l-0.001-0.001c0,0-0.001-0.001-0.001-0.001l0,0c0,0-0.001-0.001-0.001-0.001l0,0
				c-0.001-0.001-0.002-0.002-0.003-0.003l-0.001-0.001c-0.001-0.001-0.002-0.002-0.003-0.003l0-0.001
				c-0.001-0.001-0.001-0.001-0.001-0.001l0,0c0,0,0,0-0.001-0.001l-0.002-0.002c0,0,0,0,0-0.001l0,0
				c-0.001,0-0.001-0.001-0.001-0.001l-0.001,0c-0.001-0.001-0.002-0.002-0.003-0.003l-0.001-0.001
				c-0.001-0.001-0.002-0.002-0.003-0.003l0,0c0,0-0.001-0.001-0.001-0.001l0,0c0,0-0.001-0.001-0.001-0.001l-0.001-0.001
				c0,0-0.001-0.001-0.001-0.001l0,0c0,0-0.001-0.001-0.001-0.001l0,0c-0.001-0.001-0.001-0.001-0.002-0.002l0,0
				c-0.001,0-0.001-0.001-0.001-0.001l0,0c0,0,0,0,0,0h0c0,0,0,0,0,0l0,0C162.676-172.324,162.42-172.422,162.164-172.422
				L162.164-172.422z M158.544-175.631c-0.325,0-0.644,0.159-0.836,0.452c-0.302,0.462-0.173,1.083,0.288,1.386l0.04,0.026
				c0.169,0.111,0.36,0.165,0.549,0.165c0.326,0,0.645-0.158,0.837-0.45c0.304-0.461,0.177-1.079-0.283-1.383
				c-0.001-0.001-0.003-0.002-0.005-0.003c-0.014-0.01-0.029-0.019-0.043-0.028C158.922-175.578,158.732-175.631,158.544-175.631
				L158.544-175.631z M154.236-177.492c-0.45,0-0.858,0.307-0.969,0.764c-0.13,0.537,0.2,1.078,0.736,1.209l0.046,0.011
				c0.08,0.02,0.159,0.029,0.238,0.029c0.45,0,0.86-0.306,0.972-0.763c0.132-0.536-0.196-1.077-0.733-1.208
				c-0.001,0-0.002-0.001-0.003-0.001c-0.005-0.001-0.011-0.003-0.016-0.004c-0.001,0-0.003-0.001-0.004-0.001
				c-0.012-0.003-0.025-0.006-0.037-0.009C154.389-177.483,154.312-177.492,154.236-177.492L154.236-177.492z"/>
		</g>
		<g style="clip-path:url(#SVGID_00000178889338606706523940000008570385523192587650_);">
			<g style="opacity:0.3;">
				<path d="M159.636,170.783L74.725,85.872c-2.64-2.64-2.64-6.959,0-9.599l84.911-84.911c2.64-2.64,6.959-2.64,9.599,0
					l84.911,84.911c2.64,2.64,2.64,6.959,0,9.599l-84.911,84.911C166.595,173.422,162.276,173.422,159.636,170.783z"/>
			</g>
			<g>
				<path style="fill:#F3D637;" d="M155.384,168.231L70.473,83.321c-2.64-2.64-2.64-6.959,0-9.599l84.911-84.911
					c2.64-2.64,6.959-2.64,9.599,0l84.911,84.911c2.64,2.64,2.64,6.959,0,9.599l-84.911,84.911
					C162.343,170.871,158.023,170.871,155.384,168.231z"/>
			</g>
		</g>
		<g style="clip-path:url(#SVGID_00000178889338606706523940000008570385523192587650_);">
			<g style="opacity:0.3;">
				<path d="M0.361,187.003l-99.839-99.839c-3.104-3.104-3.104-8.182,0-11.286L0.361-23.961c3.104-3.104,8.182-3.104,11.286,0
					l99.839,99.839c3.104,3.104,3.104,8.182,0,11.286l-99.839,99.839C8.544,190.107,3.465,190.107,0.361,187.003z"/>
			</g>
			<g>
				<path style="fill:#5292AC;" d="M-4.639,184.003l-99.839-99.839c-3.104-3.104-3.104-8.182,0-11.286l99.839-99.839
					c3.104-3.104,8.182-3.104,11.286,0l99.839,99.839c3.104,3.104,3.104,8.182,0,11.286L6.647,184.003
					C3.544,187.107-1.535,187.107-4.639,184.003z"/>
			</g>
		</g>
		<g style="clip-path:url(#SVGID_00000178889338606706523940000008570385523192587650_);">
			<g style="opacity:0.3;">
				<path d="M567.037,544.326l-81.39-81.39c-2.53-2.53-2.53-6.67,0-9.201l81.39-81.39c2.53-2.53,6.671-2.53,9.201,0l81.391,81.39
					c2.53,2.53,2.53,6.67,0,9.201l-81.391,81.39C573.708,546.856,569.567,546.856,567.037,544.326z"/>
			</g>
			<g>
				<path style="fill:#E3843A;" d="M562.961,541.88l-81.39-81.39c-2.53-2.53-2.53-6.671,0-9.201l81.39-81.39
					c2.53-2.53,6.671-2.53,9.201,0l81.391,81.39c2.53,2.53,2.53,6.67,0,9.201l-81.391,81.39
					C569.631,544.411,565.491,544.411,562.961,541.88z"/>
			</g>
		</g>
		<g style="clip-path:url(#SVGID_00000178889338606706523940000008570385523192587650_);">
			<g style="opacity:0.3;">
				<path d="M616.005,544.326l-81.39-81.39c-2.53-2.53-2.53-6.67,0-9.201l81.39-81.39c2.53-2.53,6.67-2.53,9.201,0l81.39,81.39
					c2.53,2.53,2.53,6.67,0,9.201l-81.39,81.39C622.676,546.856,618.535,546.856,616.005,544.326z"/>
			</g>
			<g>
				<path style="fill:#F3D637;" d="M611.929,541.88l-81.39-81.39c-2.53-2.53-2.53-6.671,0-9.201l81.39-81.39
					c2.53-2.53,6.67-2.53,9.201,0l81.39,81.39c2.53,2.53,2.53,6.67,0,9.201l-81.39,81.39
					C618.599,544.411,614.459,544.411,611.929,541.88z"/>
			</g>
		</g>
		<g style="clip-path:url(#SVGID_00000178889338606706523940000008570385523192587650_);">
			<g style="opacity:0.3;">
				<path d="M486.24,544.326l-81.391-81.39c-2.53-2.53-2.53-6.67,0-9.201l81.391-81.39c2.53-2.53,6.67-2.53,9.201,0l81.39,81.39
					c2.53,2.53,2.53,6.67,0,9.201l-81.39,81.39C492.91,546.856,488.77,546.856,486.24,544.326z"/>
			</g>
			<g>
				<path style="fill:#5292AC;" d="M482.164,541.88l-81.39-81.39c-2.53-2.53-2.53-6.671,0-9.201l81.39-81.39
					c2.53-2.53,6.67-2.53,9.201,0l81.39,81.39c2.53,2.53,2.53,6.67,0,9.201l-81.39,81.39
					C488.834,544.411,484.694,544.411,482.164,541.88z"/>
			</g>
		</g>
		<g style="clip-path:url(#SVGID_00000178889338606706523940000008570385523192587650_);">
			<g style="opacity:0.3;">
				<path d="M719.543,187.556l87.083,87.083l-87.083,87.083l-87.083-87.083L719.543,187.556 M719.543,166.83
					c-2.046,0-4.091,0.776-5.643,2.328l-99.839,99.839c-3.104,3.104-3.104,8.182,0,11.286l99.839,99.839
					c1.552,1.552,3.597,2.328,5.643,2.328s4.091-0.776,5.643-2.328l99.839-99.839c3.104-3.104,3.104-8.182,0-11.286l-99.839-99.839
					C723.634,167.606,721.588,166.83,719.543,166.83L719.543,166.83z"/>
			</g>
			<g>
				<path style="fill:#5292AC;" d="M714.543,184.556l87.083,87.083l-87.083,87.083l-87.083-87.083L714.543,184.556 M714.543,163.83
					c-2.046,0-4.091,0.776-5.643,2.328l-99.839,99.839c-3.104,3.104-3.104,8.182,0,11.286l99.839,99.839
					c1.552,1.552,3.597,2.328,5.643,2.328s4.091-0.776,5.643-2.328l99.839-99.839c3.104-3.104,3.104-8.182,0-11.286l-99.839-99.839
					C718.634,164.606,716.588,163.83,714.543,163.83L714.543,163.83z"/>
			</g>
		</g>
		<g style="clip-path:url(#SVGID_00000178889338606706523940000008570385523192587650_);">
			<g style="opacity:0.3;">
				<path d="M714.154,218.5l-60.413-60.413c-1.878-1.878-1.878-4.951,0-6.829l60.413-60.413c1.878-1.878,4.951-1.878,6.829,0
					l60.413,60.413c1.878,1.878,1.878,4.951,0,6.829L720.983,218.5C719.105,220.378,716.032,220.378,714.154,218.5z"/>
			</g>
			<g>
				<path style="fill:#B92D3F;" d="M711.128,216.685l-60.413-60.413c-1.878-1.878-1.878-4.951,0-6.829l60.413-60.413
					c1.878-1.878,4.951-1.878,6.829,0l60.413,60.413c1.878,1.878,1.878,4.951,0,6.829l-60.413,60.413
					C716.079,218.563,713.006,218.563,711.128,216.685z"/>
			</g>
		</g>
		<g style="clip-path:url(#SVGID_00000178889338606706523940000008570385523192587650_);">
			<g style="opacity:0.3;">
				<path d="M739.72,303.872l74.26,74.259l-74.26,74.26l-74.259-74.26L739.72,303.872 M739.72,297.302
					c-1.534,0-3.067,0.582-4.231,1.745l-74.854,74.854c-2.327,2.327-2.327,6.135,0,8.462l74.854,74.854
					c1.164,1.163,2.697,1.745,4.231,1.745s3.067-0.582,4.231-1.745l74.854-74.854c2.327-2.327,2.327-6.135,0-8.462l-74.854-74.854
					C742.787,297.884,741.253,297.302,739.72,297.302L739.72,297.302z"/>
			</g>
			<g>
				<path style="fill:#FFFFFF;" d="M735.971,301.623l74.259,74.26l-74.259,74.26l-74.26-74.26L735.971,301.623 M735.971,295.053
					c-1.534,0-3.067,0.582-4.231,1.745l-74.854,74.854c-2.327,2.327-2.327,6.135,0,8.462l74.854,74.854
					c1.163,1.163,2.697,1.745,4.231,1.745c1.534,0,3.067-0.582,4.231-1.745l74.854-74.854c2.327-2.327,2.327-6.135,0-8.462
					l-74.854-74.854C739.038,295.635,737.505,295.053,735.971,295.053L735.971,295.053z"/>
			</g>
		</g>
		<g style="clip-path:url(#SVGID_00000178889338606706523940000008570385523192587650_);">
			<g style="opacity:0.3;">
				
					<ellipse transform="matrix(0.9239 -0.3827 0.3827 0.9239 -76.5415 40.3852)" cx="63.244" cy="212.593" rx="19.923" ry="19.923"/>
			</g>
			<g>
				
					<ellipse transform="matrix(0.7071 -0.7071 0.7071 0.7071 -131.4868 104.8703)" style="fill:#B92D3F;" cx="60.846" cy="211.154" rx="19.923" ry="19.923"/>
			</g>
		</g>
		<g style="clip-path:url(#SVGID_00000178889338606706523940000008570385523192587650_);">
			<g style="opacity:0.3;">
				<path d="M603.741,339.598c0,3.399-2.755,6.154-6.154,6.154c-3.399,0-6.154-2.755-6.154-6.154s2.755-6.154,6.154-6.154
					C600.986,333.444,603.741,336.2,603.741,339.598z"/>
			</g>
			<g>
				<path style="fill:#5292AC;" d="M603,339.154c0,3.399-2.755,6.154-6.154,6.154c-3.399,0-6.154-2.755-6.154-6.154
					c0-3.399,2.755-6.154,6.154-6.154C600.245,333,603,335.755,603,339.154z"/>
			</g>
		</g>
		<g style="clip-path:url(#SVGID_00000178889338606706523940000008570385523192587650_);">
			<g style="opacity:0.3;">
				<path d="M684.727,56.378c1.559,0,2.827,1.268,2.827,2.827c0,1.559-1.268,2.827-2.827,2.827c-1.559,0-2.827-1.268-2.827-2.827
					C681.899,57.646,683.168,56.378,684.727,56.378 M684.727,49.974c-5.098,0-9.231,4.133-9.231,9.231s4.133,9.231,9.231,9.231
					c5.098,0,9.231-4.133,9.231-9.231S689.825,49.974,684.727,49.974L684.727,49.974z"/>
			</g>
			<g>
				<path style="fill:#FFFFFF;" d="M683.615,55.711c1.559,0,2.827,1.268,2.827,2.827c0,1.559-1.268,2.827-2.827,2.827
					c-1.559,0-2.827-1.268-2.827-2.827C680.788,56.979,682.057,55.711,683.615,55.711 M683.615,49.308
					c-5.098,0-9.231,4.133-9.231,9.231c0,5.098,4.133,9.231,9.231,9.231c5.098,0,9.231-4.133,9.231-9.231
					C692.846,53.44,688.714,49.308,683.615,49.308L683.615,49.308z"/>
			</g>
		</g>
		<g style="clip-path:url(#SVGID_00000178889338606706523940000008570385523192587650_);">
			<g style="opacity:0.3;">
				<path d="M-49.183,115.108l99.046,99.046L-49.183,313.2l-99.046-99.046L-49.183,115.108 M-49.183,106.344
					c-2.046,0-4.091,0.776-5.643,2.328l-99.839,99.839c-3.104,3.104-3.104,8.182,0,11.286l99.839,99.839
					c1.552,1.552,3.598,2.328,5.643,2.328c2.046,0,4.091-0.776,5.643-2.328l99.839-99.839c3.104-3.104,3.104-8.183,0-11.286
					l-99.839-99.839C-45.092,107.12-47.137,106.344-49.183,106.344L-49.183,106.344z"/>
			</g>
			<g>
				<path style="fill:#FFFFFF;" d="M-54.183,112.108l99.046,99.046L-54.183,310.2l-99.046-99.046L-54.183,112.108 M-54.183,103.344
					c-2.046,0-4.091,0.776-5.643,2.328l-99.839,99.839c-3.104,3.104-3.104,8.182,0,11.286l99.839,99.839
					c1.552,1.552,3.598,2.328,5.643,2.328c2.046,0,4.091-0.776,5.643-2.328l99.839-99.839c3.104-3.104,3.104-8.183,0-11.286
					l-99.839-99.839C-50.092,104.12-52.137,103.344-54.183,103.344L-54.183,103.344z"/>
			</g>
		</g>
		<g style="clip-path:url(#SVGID_00000178889338606706523940000008570385523192587650_);">
			
				<line style="fill:none;stroke:#FFFFFF;stroke-width:2;stroke-miterlimit:10;stroke-dasharray:40,50,200;" x1="351.611" y1="602.474" x2="524.167" y2="423.628"/>
			
				<line style="fill:none;stroke:#FFFFFF;stroke-width:2;stroke-miterlimit:10;stroke-dasharray:40,50,200;" x1="411.675" y1="662.539" x2="584.231" y2="483.692"/>
		</g>
		<g style="clip-path:url(#SVGID_00000178889338606706523940000008570385523192587650_);">
			
				<line style="fill:none;stroke:#FFFFFF;stroke-width:2;stroke-miterlimit:10;stroke-dasharray:40,50,200;" x1="640.197" y1="208.153" x2="812.753" y2="29.307"/>
			
				<line style="fill:none;stroke:#FFFFFF;stroke-width:2;stroke-miterlimit:10;stroke-dasharray:40,50,200;" x1="700.261" y1="268.217" x2="872.817" y2="89.371"/>
		</g>
		<g style="clip-path:url(#SVGID_00000178889338606706523940000008570385523192587650_);">
			
				<line style="fill:none;stroke:#5292AC;stroke-width:2;stroke-miterlimit:10;stroke-dasharray:25,20,100;" x1="93.218" y1="429.987" x2="-79.338" y2="608.833"/>
			
				<line style="fill:none;stroke:#FFFFFF;stroke-width:2;stroke-miterlimit:10;stroke-dasharray:40,50,200;" x1="33.154" y1="369.923" x2="-139.402" y2="548.769"/>
		</g>
		<g style="clip-path:url(#SVGID_00000178889338606706523940000008570385523192587650_);">
			<g>
				<g>
					
						<line style="fill:none;stroke:#B92D3F;stroke-width:3;stroke-miterlimit:10;" x1="615.286" y1="-139.902" x2="442.73" y2="38.944"/>
				</g>
				
					<line style="fill:none;stroke:#B92D3F;stroke-width:3;stroke-miterlimit:10;" x1="555.222" y1="-199.966" x2="382.666" y2="-21.12"/>
			</g>
		</g>
	</g>
</g>
</svg>
