<svg xmlns="http://www.w3.org/2000/svg" version="1.1" xmlns:xlink="http://www.w3.org/1999/xlink" xmlns:svgjs="http://svgjs.dev/svgjs" width="1440" height="560" preserveAspectRatio="none" viewBox="0 0 1440 560"><g mask="url(&quot;#SvgjsMask1006&quot;)" fill="none"><rect width="1440" height="560" x="0" y="0" fill="#0e2a47"></rect><path d="M-97.27 363.84L-97.27 363.84" stroke="#132e65" stroke-width="1.5"></path><path d="M-97.27 363.84L-94.31 487.89" stroke="#132e65" stroke-width="1.5"></path><path d="M-97.27 363.84L77.1 398.99" stroke="#132e65" stroke-width="1.5"></path><path d="M-97.27 363.84L217.74 394.78" stroke="#132e65" stroke-width="1.5"></path><path d="M-97.27 363.84L-103.31 702.32" stroke="#132e65" stroke-width="1.5"></path><path d="M-94.31 487.89L-94.31 487.89" stroke="#132e65" stroke-width="1.5"></path><path d="M-94.31 487.89L77.1 398.99" stroke="#132e65" stroke-width="1.5"></path><path d="M-94.31 487.89L-103.31 702.32" stroke="#132e65" stroke-width="1.5"></path><path d="M-103.31 702.32L-103.31 702.32" stroke="#132e65" stroke-width="1.5"></path><path d="M-103.31 702.32L90.63 687.62" stroke="#132e65" stroke-width="1.5"></path><path d="M-103.31 702.32L234.9 660.57" stroke="#132e65" stroke-width="1.5"></path><path d="M77.1 398.99L77.1 398.99" stroke="#132e65" stroke-width="1.5"></path><path d="M77.1 398.99L217.74 394.78" stroke="#132e65" stroke-width="1.5"></path><path d="M90.63 687.62L90.63 687.62" stroke="#132e65" stroke-width="1.5"></path><path d="M90.63 687.62L234.9 660.57" stroke="#132e65" stroke-width="1.5"></path><path d="M217.74 394.78L217.74 394.78" stroke="#132e65" stroke-width="1.5"></path><path d="M217.74 394.78L255.63 558.79" stroke="#132e65" stroke-width="1.5"></path><path d="M217.74 394.78L391.51 557.17" stroke="#132e65" stroke-width="1.5"></path><path d="M255.63 558.79L255.63 558.79" stroke="#132e65" stroke-width="1.5"></path><path d="M255.63 558.79L234.9 660.57" stroke="#132e65" stroke-width="1.5"></path><path d="M255.63 558.79L391.51 557.17" stroke="#132e65" stroke-width="1.5"></path><path d="M255.63 558.79L366.51 645.19" stroke="#132e65" stroke-width="1.5"></path><path d="M234.9 660.57L234.9 660.57" stroke="#132e65" stroke-width="1.5"></path><path d="M234.9 660.57L366.51 645.19" stroke="#132e65" stroke-width="1.5"></path><path d="M234.9 660.57L391.51 557.17" stroke="#132e65" stroke-width="1.5"></path><path d="M234.9 660.57L217.74 394.78" stroke="#132e65" stroke-width="1.5"></path><path d="M234.9 660.57L510.5 537.28" stroke="#132e65" stroke-width="1.5"></path><path d="M391.51 557.17L391.51 557.17" stroke="#132e65" stroke-width="1.5"></path><path d="M391.51 557.17L366.51 645.19" stroke="#132e65" stroke-width="1.5"></path><path d="M391.51 557.17L510.5 537.28" stroke="#132e65" stroke-width="1.5"></path><path d="M366.51 645.19L366.51 645.19" stroke="#132e65" stroke-width="1.5"></path><path d="M557.36 367.62L557.36 367.62" stroke="#132e65" stroke-width="1.5"></path><path d="M557.36 367.62L510.5 537.28" stroke="#132e65" stroke-width="1.5"></path><path d="M557.36 367.62L672.81 550.36" stroke="#132e65" stroke-width="1.5"></path><path d="M557.36 367.62L704.38 206.94" stroke="#132e65" stroke-width="1.5"></path><path d="M557.36 367.62L391.51 557.17" stroke="#132e65" stroke-width="1.5"></path><path d="M510.5 537.28L510.5 537.28" stroke="#132e65" stroke-width="1.5"></path><path d="M510.5 537.28L536.42 678.17" stroke="#132e65" stroke-width="1.5"></path><path d="M536.42 678.17L536.42 678.17" stroke="#132e65" stroke-width="1.5"></path><path d="M536.42 678.17L671.31 647.4" stroke="#132e65" stroke-width="1.5"></path><path d="M536.42 678.17L366.51 645.19" stroke="#132e65" stroke-width="1.5"></path><path d="M704.38 206.94L704.38 206.94" stroke="#132e65" stroke-width="1.5"></path><path d="M704.38 206.94L850.91 254.04" stroke="#132e65" stroke-width="1.5"></path><path d="M704.38 206.94L810.43 352.84" stroke="#132e65" stroke-width="1.5"></path><path d="M704.38 206.94L943.21 68.92" stroke="#132e65" stroke-width="1.5"></path><path d="M704.38 206.94L987.74 366.65" stroke="#132e65" stroke-width="1.5"></path><path d="M672.81 550.36L672.81 550.36" stroke="#132e65" stroke-width="1.5"></path><path d="M672.81 550.36L671.31 647.4" stroke="#132e65" stroke-width="1.5"></path><path d="M672.81 550.36L790.89 521.15" stroke="#132e65" stroke-width="1.5"></path><path d="M672.81 550.36L510.5 537.28" stroke="#132e65" stroke-width="1.5"></path><path d="M672.81 550.36L536.42 678.17" stroke="#132e65" stroke-width="1.5"></path><path d="M671.31 647.4L671.31 647.4" stroke="#132e65" stroke-width="1.5"></path><path d="M671.31 647.4L790.89 521.15" stroke="#132e65" stroke-width="1.5"></path><path d="M671.31 647.4L848.66 655.69" stroke="#132e65" stroke-width="1.5"></path><path d="M850.91 254.04L850.91 254.04" stroke="#132e65" stroke-width="1.5"></path><path d="M850.91 254.04L810.43 352.84" stroke="#132e65" stroke-width="1.5"></path><path d="M850.91 254.04L987.74 366.65" stroke="#132e65" stroke-width="1.5"></path><path d="M810.43 352.84L810.43 352.84" stroke="#132e65" stroke-width="1.5"></path><path d="M810.43 352.84L790.89 521.15" stroke="#132e65" stroke-width="1.5"></path><path d="M810.43 352.84L987.74 366.65" stroke="#132e65" stroke-width="1.5"></path><path d="M790.89 521.15L790.89 521.15" stroke="#132e65" stroke-width="1.5"></path><path d="M790.89 521.15L848.66 655.69" stroke="#132e65" stroke-width="1.5"></path><path d="M790.89 521.15L952.58 522.79" stroke="#132e65" stroke-width="1.5"></path><path d="M848.66 655.69L848.66 655.69" stroke="#132e65" stroke-width="1.5"></path><path d="M848.66 655.69L955.48 688.85" stroke="#132e65" stroke-width="1.5"></path><path d="M848.66 655.69L952.58 522.79" stroke="#132e65" stroke-width="1.5"></path><path d="M1001.17 -87.39L1001.17 -87.39" stroke="#132e65" stroke-width="1.5"></path><path d="M1001.17 -87.39L1144.14 -57.71" stroke="#132e65" stroke-width="1.5"></path><path d="M1001.17 -87.39L943.21 68.92" stroke="#132e65" stroke-width="1.5"></path><path d="M943.21 68.92L943.21 68.92" stroke="#132e65" stroke-width="1.5"></path><path d="M943.21 68.92L850.91 254.04" stroke="#132e65" stroke-width="1.5"></path><path d="M943.21 68.92L1144.14 -57.71" stroke="#132e65" stroke-width="1.5"></path><path d="M987.74 366.65L987.74 366.65" stroke="#132e65" stroke-width="1.5"></path><path d="M987.74 366.65L1127.29 349.09" stroke="#132e65" stroke-width="1.5"></path><path d="M952.58 522.79L952.58 522.79" stroke="#132e65" stroke-width="1.5"></path><path d="M952.58 522.79L987.74 366.65" stroke="#132e65" stroke-width="1.5"></path><path d="M952.58 522.79L1112.32 512.14" stroke="#132e65" stroke-width="1.5"></path><path d="M952.58 522.79L955.48 688.85" stroke="#132e65" stroke-width="1.5"></path><path d="M955.48 688.85L955.48 688.85" stroke="#132e65" stroke-width="1.5"></path><path d="M1144.14 -57.71L1144.14 -57.71" stroke="#132e65" stroke-width="1.5"></path><path d="M1144.14 -57.71L1262.71 -94.71" stroke="#132e65" stroke-width="1.5"></path><path d="M1144.14 -57.71L1288.75 49.06" stroke="#132e65" stroke-width="1.5"></path><path d="M1144.14 -57.71L1126.14 226.2" stroke="#132e65" stroke-width="1.5"></path><path d="M1126.14 226.2L1126.14 226.2" stroke="#132e65" stroke-width="1.5"></path><path d="M1126.14 226.2L1127.29 349.09" stroke="#132e65" stroke-width="1.5"></path><path d="M1126.14 226.2L1252.42 228.07" stroke="#132e65" stroke-width="1.5"></path><path d="M1126.14 226.2L987.74 366.65" stroke="#132e65" stroke-width="1.5"></path><path d="M1127.29 349.09L1127.29 349.09" stroke="#132e65" stroke-width="1.5"></path><path d="M1127.29 349.09L1112.32 512.14" stroke="#132e65" stroke-width="1.5"></path><path d="M1127.29 349.09L1290.81 364.4" stroke="#132e65" stroke-width="1.5"></path><path d="M1112.32 512.14L1112.32 512.14" stroke="#132e65" stroke-width="1.5"></path><path d="M1112.32 512.14L1137.33 653.54" stroke="#132e65" stroke-width="1.5"></path><path d="M1112.32 512.14L1256.59 537.85" stroke="#132e65" stroke-width="1.5"></path><path d="M1112.32 512.14L987.74 366.65" stroke="#132e65" stroke-width="1.5"></path><path d="M1112.32 512.14L1276.63 663.05" stroke="#132e65" stroke-width="1.5"></path><path d="M1137.33 653.54L1137.33 653.54" stroke="#132e65" stroke-width="1.5"></path><path d="M1137.33 653.54L1276.63 663.05" stroke="#132e65" stroke-width="1.5"></path><path d="M1137.33 653.54L1256.59 537.85" stroke="#132e65" stroke-width="1.5"></path><path d="M1137.33 653.54L955.48 688.85" stroke="#132e65" stroke-width="1.5"></path><path d="M1137.33 653.54L952.58 522.79" stroke="#132e65" stroke-width="1.5"></path><path d="M1137.33 653.54L1411.28 645.49" stroke="#132e65" stroke-width="1.5"></path><path d="M1262.71 -94.71L1262.71 -94.71" stroke="#132e65" stroke-width="1.5"></path><path d="M1262.71 -94.71L1288.75 49.06" stroke="#132e65" stroke-width="1.5"></path><path d="M1262.71 -94.71L1440.59 -46.96" stroke="#132e65" stroke-width="1.5"></path><path d="M1262.71 -94.71L1001.17 -87.39" stroke="#132e65" stroke-width="1.5"></path><path d="M1288.75 49.06L1288.75 49.06" stroke="#132e65" stroke-width="1.5"></path><path d="M1288.75 49.06L1440.59 -46.96" stroke="#132e65" stroke-width="1.5"></path><path d="M1252.42 228.07L1252.42 228.07" stroke="#132e65" stroke-width="1.5"></path><path d="M1252.42 228.07L1290.81 364.4" stroke="#132e65" stroke-width="1.5"></path><path d="M1252.42 228.07L1408.17 206.96" stroke="#132e65" stroke-width="1.5"></path><path d="M1252.42 228.07L1127.29 349.09" stroke="#132e65" stroke-width="1.5"></path><path d="M1290.81 364.4L1290.81 364.4" stroke="#132e65" stroke-width="1.5"></path><path d="M1290.81 364.4L1426.83 368.64" stroke="#132e65" stroke-width="1.5"></path><path d="M1256.59 537.85L1256.59 537.85" stroke="#132e65" stroke-width="1.5"></path><path d="M1256.59 537.85L1276.63 663.05" stroke="#132e65" stroke-width="1.5"></path><path d="M1276.63 663.05L1276.63 663.05" stroke="#132e65" stroke-width="1.5"></path><path d="M1276.63 663.05L1411.28 645.49" stroke="#132e65" stroke-width="1.5"></path><path d="M1440.59 -46.96L1440.59 -46.96" stroke="#132e65" stroke-width="1.5"></path><path d="M1440.59 -46.96L1539.17 -74.24" stroke="#132e65" stroke-width="1.5"></path><path d="M1408.17 206.96L1408.17 206.96" stroke="#132e65" stroke-width="1.5"></path><path d="M1408.17 206.96L1426.83 368.64" stroke="#132e65" stroke-width="1.5"></path><path d="M1408.17 206.96L1581.08 242.92" stroke="#132e65" stroke-width="1.5"></path><path d="M1426.83 368.64L1426.83 368.64" stroke="#132e65" stroke-width="1.5"></path><path d="M1426.83 368.64L1560.16 509.3" stroke="#132e65" stroke-width="1.5"></path><path d="M1426.83 368.64L1581.08 242.92" stroke="#132e65" stroke-width="1.5"></path><path d="M1411.28 645.49L1411.28 645.49" stroke="#132e65" stroke-width="1.5"></path><path d="M1411.28 645.49L1565.65 653.22" stroke="#132e65" stroke-width="1.5"></path><path d="M1411.28 645.49L1256.59 537.85" stroke="#132e65" stroke-width="1.5"></path><path d="M1411.28 645.49L1560.16 509.3" stroke="#132e65" stroke-width="1.5"></path><path d="M1411.28 645.49L1426.83 368.64" stroke="#132e65" stroke-width="1.5"></path><path d="M1539.17 -74.24L1539.17 -74.24" stroke="#132e65" stroke-width="1.5"></path><path d="M1539.17 -74.24L1604.36 110.83" stroke="#132e65" stroke-width="1.5"></path><path d="M1604.36 110.83L1604.36 110.83" stroke="#132e65" stroke-width="1.5"></path><path d="M1604.36 110.83L1581.08 242.92" stroke="#132e65" stroke-width="1.5"></path><path d="M1604.36 110.83L1408.17 206.96" stroke="#132e65" stroke-width="1.5"></path><path d="M1581.08 242.92L1581.08 242.92" stroke="#132e65" stroke-width="1.5"></path><path d="M1560.16 509.3L1560.16 509.3" stroke="#132e65" stroke-width="1.5"></path><path d="M1560.16 509.3L1565.65 653.22" stroke="#132e65" stroke-width="1.5"></path><path d="M1565.65 653.22L1565.65 653.22" stroke="#132e65" stroke-width="1.5"></path><path d="M1565.65 653.22L1276.63 663.05" stroke="#132e65" stroke-width="1.5"></path><path d="M1565.65 653.22L1426.83 368.64" stroke="#132e65" stroke-width="1.5"></path><circle r="5" cx="-97.27" cy="363.84" fill="#132e65"></circle><circle r="5" cx="-94.31" cy="487.89" fill="#132e65"></circle><circle r="5" cx="-103.31" cy="702.32" fill="#132e65"></circle><circle r="5" cx="77.1" cy="398.99" fill="#132e65"></circle><circle r="5" cx="90.63" cy="687.62" fill="#132e65"></circle><circle r="5" cx="217.74" cy="394.78" fill="#132e65"></circle><circle r="5" cx="255.63" cy="558.79" fill="#132e65"></circle><circle r="5" cx="234.9" cy="660.57" fill="#132e65"></circle><circle r="5" cx="391.51" cy="557.17" fill="#132e65"></circle><circle r="5" cx="366.51" cy="645.19" fill="#132e65"></circle><circle r="5" cx="557.36" cy="367.62" fill="#132e65"></circle><circle r="5" cx="510.5" cy="537.28" fill="#132e65"></circle><circle r="5" cx="536.42" cy="678.17" fill="#132e65"></circle><circle r="5" cx="704.38" cy="206.94" fill="#132e65"></circle><circle r="5" cx="672.81" cy="550.36" fill="#132e65"></circle><circle r="5" cx="671.31" cy="647.4" fill="#132e65"></circle><circle r="5" cx="850.91" cy="254.04" fill="#132e65"></circle><circle r="5" cx="810.43" cy="352.84" fill="#132e65"></circle><circle r="5" cx="790.89" cy="521.15" fill="#132e65"></circle><circle r="5" cx="848.66" cy="655.69" fill="#132e65"></circle><circle r="5" cx="1001.17" cy="-87.39" fill="#132e65"></circle><circle r="5" cx="943.21" cy="68.92" fill="#132e65"></circle><circle r="5" cx="987.74" cy="366.65" fill="#132e65"></circle><circle r="5" cx="952.58" cy="522.79" fill="#132e65"></circle><circle r="5" cx="955.48" cy="688.85" fill="#132e65"></circle><circle r="5" cx="1144.14" cy="-57.71" fill="#132e65"></circle><circle r="5" cx="1126.14" cy="226.2" fill="#132e65"></circle><circle r="5" cx="1127.29" cy="349.09" fill="#132e65"></circle><circle r="5" cx="1112.32" cy="512.14" fill="#132e65"></circle><circle r="5" cx="1137.33" cy="653.54" fill="#132e65"></circle><circle r="5" cx="1262.71" cy="-94.71" fill="#132e65"></circle><circle r="5" cx="1288.75" cy="49.06" fill="#132e65"></circle><circle r="5" cx="1252.42" cy="228.07" fill="#132e65"></circle><circle r="5" cx="1290.81" cy="364.4" fill="#132e65"></circle><circle r="5" cx="1256.59" cy="537.85" fill="#132e65"></circle><circle r="5" cx="1276.63" cy="663.05" fill="#132e65"></circle><circle r="5" cx="1440.59" cy="-46.96" fill="#132e65"></circle><circle r="5" cx="1408.17" cy="206.96" fill="#132e65"></circle><circle r="5" cx="1426.83" cy="368.64" fill="#132e65"></circle><circle r="5" cx="1411.28" cy="645.49" fill="#132e65"></circle><circle r="5" cx="1539.17" cy="-74.24" fill="#132e65"></circle><circle r="5" cx="1604.36" cy="110.83" fill="#132e65"></circle><circle r="5" cx="1581.08" cy="242.92" fill="#132e65"></circle><circle r="5" cx="1560.16" cy="509.3" fill="#132e65"></circle><circle r="5" cx="1565.65" cy="653.22" fill="#132e65"></circle><path d="M513.29 712L513.29 712" stroke="hsl(228.5, 77.2%, 51.5%)" stroke-width="1.5"></path><path d="M513.29 712L680.63 688.09" stroke="hsl(228.5, 77.2%, 51.5%)" stroke-width="1.5"></path><path d="M513.29 712L348.8 660.92" stroke="hsl(228.5, 77.2%, 51.5%)" stroke-width="1.5"></path><path d="M513.29 712L391.06 556.77" stroke="hsl(228.5, 77.2%, 51.5%)" stroke-width="1.5"></path><path d="M513.29 712L525.05 504.28" stroke="hsl(228.5, 77.2%, 51.5%)" stroke-width="1.5"></path><path d="M513.29 712L699.37 525.99" stroke="hsl(228.5, 77.2%, 51.5%)" stroke-width="1.5"></path><path d="M965.09 360.45L965.09 360.45" stroke="hsl(228.5, 77.2%, 51.5%)" stroke-width="1.5"></path><path d="M965.09 360.45L994.42 235.05" stroke="hsl(228.5, 77.2%, 51.5%)" stroke-width="1.5"></path><path d="M965.09 360.45L817.13 406.85" stroke="hsl(228.5, 77.2%, 51.5%)" stroke-width="1.5"></path><path d="M1110.39 227.07L1110.39 227.07" stroke="hsl(228.5, 77.2%, 51.5%)" stroke-width="1.5"></path><path d="M1110.39 227.07L994.42 235.05" stroke="hsl(228.5, 77.2%, 51.5%)" stroke-width="1.5"></path><path d="M1110.39 227.07L1138.34 395.33" stroke="hsl(228.5, 77.2%, 51.5%)" stroke-width="1.5"></path><path d="M1110.39 227.07L965.09 360.45" stroke="hsl(228.5, 77.2%, 51.5%)" stroke-width="1.5"></path><path d="M1110.39 227.07L1307.84 381.87" stroke="hsl(228.5, 77.2%, 51.5%)" stroke-width="1.5"></path><path d="M1110.39 227.07L1146.42 494.64" stroke="hsl(228.5, 77.2%, 51.5%)" stroke-width="1.5"></path><path d="M1160.88 681.37L1160.88 681.37" stroke="hsl(228.5, 77.2%, 51.5%)" stroke-width="1.5"></path><path d="M1160.88 681.37L1275.19 654.92" stroke="hsl(228.5, 77.2%, 51.5%)" stroke-width="1.5"></path><path d="M1160.88 681.37L1254.34 523.42" stroke="hsl(228.5, 77.2%, 51.5%)" stroke-width="1.5"></path><path d="M1160.88 681.37L1146.42 494.64" stroke="hsl(228.5, 77.2%, 51.5%)" stroke-width="1.5"></path><path d="M1160.88 681.37L970.55 704.38" stroke="hsl(228.5, 77.2%, 51.5%)" stroke-width="1.5"></path><path d="M1160.88 681.37L972.71 555.88" stroke="hsl(228.5, 77.2%, 51.5%)" stroke-width="1.5"></path><path d="M1401.77 363.04L1401.77 363.04" stroke="hsl(228.5, 77.2%, 51.5%)" stroke-width="1.5"></path><path d="M1401.77 363.04L1307.84 381.87" stroke="hsl(228.5, 77.2%, 51.5%)" stroke-width="1.5"></path><path d="M1401.77 363.04L1407.77 493.18" stroke="hsl(228.5, 77.2%, 51.5%)" stroke-width="1.5"></path><path d="M1401.77 363.04L1398.11 224.44" stroke="hsl(228.5, 77.2%, 51.5%)" stroke-width="1.5"></path><path d="M1401.77 363.04L1545.57 251.87" stroke="hsl(228.5, 77.2%, 51.5%)" stroke-width="1.5"></path><path d="M1407.77 493.18L1407.77 493.18" stroke="hsl(228.5, 77.2%, 51.5%)" stroke-width="1.5"></path><path d="M1407.77 493.18L1539.14 556.83" stroke="hsl(228.5, 77.2%, 51.5%)" stroke-width="1.5"></path><path d="M1407.77 493.18L1307.84 381.87" stroke="hsl(228.5, 77.2%, 51.5%)" stroke-width="1.5"></path><path d="M1407.77 493.18L1254.34 523.42" stroke="hsl(228.5, 77.2%, 51.5%)" stroke-width="1.5"></path><path d="M-87.05 510.26L-87.05 510.26" stroke="hsl(228.5, 77.2%, 51.5%)" stroke-width="1.5"></path><path d="M-87.05 510.26L-38.58 661.99" stroke="hsl(228.5, 77.2%, 51.5%)" stroke-width="1.5"></path><path d="M-87.05 510.26L67.35 692.21" stroke="hsl(228.5, 77.2%, 51.5%)" stroke-width="1.5"></path><path d="M-87.05 510.26L220.63 542.41" stroke="hsl(228.5, 77.2%, 51.5%)" stroke-width="1.5"></path><path d="M-87.05 510.26L212.53 656.28" stroke="hsl(228.5, 77.2%, 51.5%)" stroke-width="1.5"></path><path d="M-38.58 661.99L-38.58 661.99" stroke="hsl(228.5, 77.2%, 51.5%)" stroke-width="1.5"></path><path d="M-38.58 661.99L67.35 692.21" stroke="hsl(228.5, 77.2%, 51.5%)" stroke-width="1.5"></path><path d="M67.35 692.21L67.35 692.21" stroke="hsl(228.5, 77.2%, 51.5%)" stroke-width="1.5"></path><path d="M67.35 692.21L212.53 656.28" stroke="hsl(228.5, 77.2%, 51.5%)" stroke-width="1.5"></path><path d="M67.35 692.21L220.63 542.41" stroke="hsl(228.5, 77.2%, 51.5%)" stroke-width="1.5"></path><path d="M220.63 542.41L220.63 542.41" stroke="hsl(228.5, 77.2%, 51.5%)" stroke-width="1.5"></path><path d="M220.63 542.41L212.53 656.28" stroke="hsl(228.5, 77.2%, 51.5%)" stroke-width="1.5"></path><path d="M220.63 542.41L391.06 556.77" stroke="hsl(228.5, 77.2%, 51.5%)" stroke-width="1.5"></path><path d="M212.53 656.28L212.53 656.28" stroke="hsl(228.5, 77.2%, 51.5%)" stroke-width="1.5"></path><path d="M212.53 656.28L348.8 660.92" stroke="hsl(228.5, 77.2%, 51.5%)" stroke-width="1.5"></path><path d="M212.53 656.28L391.06 556.77" stroke="hsl(228.5, 77.2%, 51.5%)" stroke-width="1.5"></path><path d="M212.53 656.28L-38.58 661.99" stroke="hsl(228.5, 77.2%, 51.5%)" stroke-width="1.5"></path><path d="M391.06 556.77L391.06 556.77" stroke="hsl(228.5, 77.2%, 51.5%)" stroke-width="1.5"></path><path d="M391.06 556.77L348.8 660.92" stroke="hsl(228.5, 77.2%, 51.5%)" stroke-width="1.5"></path><path d="M391.06 556.77L525.05 504.28" stroke="hsl(228.5, 77.2%, 51.5%)" stroke-width="1.5"></path><path d="M348.8 660.92L348.8 660.92" stroke="hsl(228.5, 77.2%, 51.5%)" stroke-width="1.5"></path><path d="M348.8 660.92L220.63 542.41" stroke="hsl(228.5, 77.2%, 51.5%)" stroke-width="1.5"></path><path d="M348.8 660.92L525.05 504.28" stroke="hsl(228.5, 77.2%, 51.5%)" stroke-width="1.5"></path><path d="M525.05 504.28L525.05 504.28" stroke="hsl(228.5, 77.2%, 51.5%)" stroke-width="1.5"></path><path d="M525.05 504.28L699.37 525.99" stroke="hsl(228.5, 77.2%, 51.5%)" stroke-width="1.5"></path><path d="M525.05 504.28L664.99 373.1" stroke="hsl(228.5, 77.2%, 51.5%)" stroke-width="1.5"></path><path d="M664.99 373.1L664.99 373.1" stroke="hsl(228.5, 77.2%, 51.5%)" stroke-width="1.5"></path><path d="M664.99 373.1L817.13 406.85" stroke="hsl(228.5, 77.2%, 51.5%)" stroke-width="1.5"></path><path d="M664.99 373.1L699.37 525.99" stroke="hsl(228.5, 77.2%, 51.5%)" stroke-width="1.5"></path><path d="M699.37 525.99L699.37 525.99" stroke="hsl(228.5, 77.2%, 51.5%)" stroke-width="1.5"></path><path d="M699.37 525.99L805.09 520.4" stroke="hsl(228.5, 77.2%, 51.5%)" stroke-width="1.5"></path><path d="M699.37 525.99L680.63 688.09" stroke="hsl(228.5, 77.2%, 51.5%)" stroke-width="1.5"></path><path d="M699.37 525.99L817.13 406.85" stroke="hsl(228.5, 77.2%, 51.5%)" stroke-width="1.5"></path><path d="M680.63 688.09L680.63 688.09" stroke="hsl(228.5, 77.2%, 51.5%)" stroke-width="1.5"></path><path d="M680.63 688.09L854.88 647.64" stroke="hsl(228.5, 77.2%, 51.5%)" stroke-width="1.5"></path><path d="M680.63 688.09L805.09 520.4" stroke="hsl(228.5, 77.2%, 51.5%)" stroke-width="1.5"></path><path d="M817.13 406.85L817.13 406.85" stroke="hsl(228.5, 77.2%, 51.5%)" stroke-width="1.5"></path><path d="M817.13 406.85L805.09 520.4" stroke="hsl(228.5, 77.2%, 51.5%)" stroke-width="1.5"></path><path d="M817.13 406.85L972.71 555.88" stroke="hsl(228.5, 77.2%, 51.5%)" stroke-width="1.5"></path><path d="M817.13 406.85L854.88 647.64" stroke="hsl(228.5, 77.2%, 51.5%)" stroke-width="1.5"></path><path d="M805.09 520.4L805.09 520.4" stroke="hsl(228.5, 77.2%, 51.5%)" stroke-width="1.5"></path><path d="M805.09 520.4L854.88 647.64" stroke="hsl(228.5, 77.2%, 51.5%)" stroke-width="1.5"></path><path d="M854.88 647.64L854.88 647.64" stroke="hsl(228.5, 77.2%, 51.5%)" stroke-width="1.5"></path><path d="M854.88 647.64L970.55 704.38" stroke="hsl(228.5, 77.2%, 51.5%)" stroke-width="1.5"></path><path d="M854.88 647.64L972.71 555.88" stroke="hsl(228.5, 77.2%, 51.5%)" stroke-width="1.5"></path><path d="M994.42 235.05L994.42 235.05" stroke="hsl(228.5, 77.2%, 51.5%)" stroke-width="1.5"></path><path d="M994.42 235.05L1138.34 395.33" stroke="hsl(228.5, 77.2%, 51.5%)" stroke-width="1.5"></path><path d="M972.71 555.88L972.71 555.88" stroke="hsl(228.5, 77.2%, 51.5%)" stroke-width="1.5"></path><path d="M972.71 555.88L970.55 704.38" stroke="hsl(228.5, 77.2%, 51.5%)" stroke-width="1.5"></path><path d="M970.55 704.38L970.55 704.38" stroke="hsl(228.5, 77.2%, 51.5%)" stroke-width="1.5"></path><path d="M1138.34 395.33L1138.34 395.33" stroke="hsl(228.5, 77.2%, 51.5%)" stroke-width="1.5"></path><path d="M1138.34 395.33L1146.42 494.64" stroke="hsl(228.5, 77.2%, 51.5%)" stroke-width="1.5"></path><path d="M1138.34 395.33L1307.84 381.87" stroke="hsl(228.5, 77.2%, 51.5%)" stroke-width="1.5"></path><path d="M1138.34 395.33L1254.34 523.42" stroke="hsl(228.5, 77.2%, 51.5%)" stroke-width="1.5"></path><path d="M1138.34 395.33L965.09 360.45" stroke="hsl(228.5, 77.2%, 51.5%)" stroke-width="1.5"></path><path d="M1146.42 494.64L1146.42 494.64" stroke="hsl(228.5, 77.2%, 51.5%)" stroke-width="1.5"></path><path d="M1146.42 494.64L1254.34 523.42" stroke="hsl(228.5, 77.2%, 51.5%)" stroke-width="1.5"></path><path d="M1146.42 494.64L972.71 555.88" stroke="hsl(228.5, 77.2%, 51.5%)" stroke-width="1.5"></path><path d="M1146.42 494.64L1307.84 381.87" stroke="hsl(228.5, 77.2%, 51.5%)" stroke-width="1.5"></path><path d="M1146.42 494.64L1275.19 654.92" stroke="hsl(228.5, 77.2%, 51.5%)" stroke-width="1.5"></path><path d="M1282.33 -95.15L1282.33 -95.15" stroke="hsl(228.5, 77.2%, 51.5%)" stroke-width="1.5"></path><path d="M1282.33 -95.15L1451.48 -101.05" stroke="hsl(228.5, 77.2%, 51.5%)" stroke-width="1.5"></path><path d="M1282.33 -95.15L1397.93 58.87" stroke="hsl(228.5, 77.2%, 51.5%)" stroke-width="1.5"></path><path d="M1282.33 -95.15L1560.65 -86.58" stroke="hsl(228.5, 77.2%, 51.5%)" stroke-width="1.5"></path><path d="M1307.84 381.87L1307.84 381.87" stroke="hsl(228.5, 77.2%, 51.5%)" stroke-width="1.5"></path><path d="M1307.84 381.87L1254.34 523.42" stroke="hsl(228.5, 77.2%, 51.5%)" stroke-width="1.5"></path><path d="M1254.34 523.42L1254.34 523.42" stroke="hsl(228.5, 77.2%, 51.5%)" stroke-width="1.5"></path><path d="M1254.34 523.42L1275.19 654.92" stroke="hsl(228.5, 77.2%, 51.5%)" stroke-width="1.5"></path><path d="M1275.19 654.92L1275.19 654.92" stroke="hsl(228.5, 77.2%, 51.5%)" stroke-width="1.5"></path><path d="M1275.19 654.92L1396.75 674.51" stroke="hsl(228.5, 77.2%, 51.5%)" stroke-width="1.5"></path><path d="M1275.19 654.92L1407.77 493.18" stroke="hsl(228.5, 77.2%, 51.5%)" stroke-width="1.5"></path><path d="M1275.19 654.92L1307.84 381.87" stroke="hsl(228.5, 77.2%, 51.5%)" stroke-width="1.5"></path><path d="M1451.48 -101.05L1451.48 -101.05" stroke="hsl(228.5, 77.2%, 51.5%)" stroke-width="1.5"></path><path d="M1451.48 -101.05L1560.65 -86.58" stroke="hsl(228.5, 77.2%, 51.5%)" stroke-width="1.5"></path><path d="M1451.48 -101.05L1397.93 58.87" stroke="hsl(228.5, 77.2%, 51.5%)" stroke-width="1.5"></path><path d="M1397.93 58.87L1397.93 58.87" stroke="hsl(228.5, 77.2%, 51.5%)" stroke-width="1.5"></path><path d="M1397.93 58.87L1553.59 58.04" stroke="hsl(228.5, 77.2%, 51.5%)" stroke-width="1.5"></path><path d="M1397.93 58.87L1398.11 224.44" stroke="hsl(228.5, 77.2%, 51.5%)" stroke-width="1.5"></path><path d="M1398.11 224.44L1398.11 224.44" stroke="hsl(228.5, 77.2%, 51.5%)" stroke-width="1.5"></path><path d="M1398.11 224.44L1545.57 251.87" stroke="hsl(228.5, 77.2%, 51.5%)" stroke-width="1.5"></path><path d="M1398.11 224.44L1307.84 381.87" stroke="hsl(228.5, 77.2%, 51.5%)" stroke-width="1.5"></path><path d="M1398.11 224.44L1553.59 58.04" stroke="hsl(228.5, 77.2%, 51.5%)" stroke-width="1.5"></path><path d="M1396.75 674.51L1396.75 674.51" stroke="hsl(228.5, 77.2%, 51.5%)" stroke-width="1.5"></path><path d="M1396.75 674.51L1407.77 493.18" stroke="hsl(228.5, 77.2%, 51.5%)" stroke-width="1.5"></path><path d="M1396.75 674.51L1539.14 556.83" stroke="hsl(228.5, 77.2%, 51.5%)" stroke-width="1.5"></path><path d="M1396.75 674.51L1254.34 523.42" stroke="hsl(228.5, 77.2%, 51.5%)" stroke-width="1.5"></path><path d="M1560.65 -86.58L1560.65 -86.58" stroke="hsl(228.5, 77.2%, 51.5%)" stroke-width="1.5"></path><path d="M1560.65 -86.58L1553.59 58.04" stroke="hsl(228.5, 77.2%, 51.5%)" stroke-width="1.5"></path><path d="M1560.65 -86.58L1397.93 58.87" stroke="hsl(228.5, 77.2%, 51.5%)" stroke-width="1.5"></path><path d="M1560.65 -86.58L1545.57 251.87" stroke="hsl(228.5, 77.2%, 51.5%)" stroke-width="1.5"></path><path d="M1560.65 -86.58L1398.11 224.44" stroke="hsl(228.5, 77.2%, 51.5%)" stroke-width="1.5"></path><path d="M1553.59 58.04L1553.59 58.04" stroke="hsl(228.5, 77.2%, 51.5%)" stroke-width="1.5"></path><path d="M1553.59 58.04L1451.48 -101.05" stroke="hsl(228.5, 77.2%, 51.5%)" stroke-width="1.5"></path><path d="M1553.59 58.04L1545.57 251.87" stroke="hsl(228.5, 77.2%, 51.5%)" stroke-width="1.5"></path><path d="M1545.57 251.87L1545.57 251.87" stroke="hsl(228.5, 77.2%, 51.5%)" stroke-width="1.5"></path><path d="M1545.57 251.87L1592.58 390.23" stroke="hsl(228.5, 77.2%, 51.5%)" stroke-width="1.5"></path><path d="M1592.58 390.23L1592.58 390.23" stroke="hsl(228.5, 77.2%, 51.5%)" stroke-width="1.5"></path><path d="M1592.58 390.23L1539.14 556.83" stroke="hsl(228.5, 77.2%, 51.5%)" stroke-width="1.5"></path><path d="M1592.58 390.23L1401.77 363.04" stroke="hsl(228.5, 77.2%, 51.5%)" stroke-width="1.5"></path><path d="M1539.14 556.83L1539.14 556.83" stroke="hsl(228.5, 77.2%, 51.5%)" stroke-width="1.5"></path><path d="M1539.14 556.83L1401.77 363.04" stroke="hsl(228.5, 77.2%, 51.5%)" stroke-width="1.5"></path><path d="M1539.14 556.83L1275.19 654.92" stroke="hsl(228.5, 77.2%, 51.5%)" stroke-width="1.5"></path><circle r="25" cx="513.29" cy="712" fill="url(&quot;#SvgjsRadialGradient1007&quot;)"></circle><circle r="25" cx="965.09" cy="360.45" fill="url(&quot;#SvgjsRadialGradient1007&quot;)"></circle><circle r="25" cx="1110.39" cy="227.07" fill="url(&quot;#SvgjsRadialGradient1007&quot;)"></circle><circle r="25" cx="1160.88" cy="681.37" fill="url(&quot;#SvgjsRadialGradient1007&quot;)"></circle><circle r="25" cx="1401.77" cy="363.04" fill="url(&quot;#SvgjsRadialGradient1007&quot;)"></circle><circle r="25" cx="1407.77" cy="493.18" fill="url(&quot;#SvgjsRadialGradient1007&quot;)"></circle><circle r="5" cx="-87.05" cy="510.26" fill="#8b9ad9"></circle><circle r="5" cx="-38.58" cy="661.99" fill="#8b9ad9"></circle><circle r="5" cx="67.35" cy="692.21" fill="#8b9ad9"></circle><circle r="5" cx="220.63" cy="542.41" fill="#8b9ad9"></circle><circle r="5" cx="212.53" cy="656.28" fill="#8b9ad9"></circle><circle r="5" cx="391.06" cy="556.77" fill="#8b9ad9"></circle><circle r="5" cx="348.8" cy="660.92" fill="#8b9ad9"></circle><circle r="5" cx="525.05" cy="504.28" fill="#8b9ad9"></circle><circle r="5" cx="664.99" cy="373.1" fill="#8b9ad9"></circle><circle r="5" cx="699.37" cy="525.99" fill="#8b9ad9"></circle><circle r="5" cx="680.63" cy="688.09" fill="#8b9ad9"></circle><circle r="5" cx="817.13" cy="406.85" fill="#8b9ad9"></circle><circle r="5" cx="805.09" cy="520.4" fill="#8b9ad9"></circle><circle r="5" cx="854.88" cy="647.64" fill="#8b9ad9"></circle><circle r="5" cx="994.42" cy="235.05" fill="#8b9ad9"></circle><circle r="5" cx="972.71" cy="555.88" fill="#8b9ad9"></circle><circle r="5" cx="970.55" cy="704.38" fill="#8b9ad9"></circle><circle r="5" cx="1138.34" cy="395.33" fill="#8b9ad9"></circle><circle r="5" cx="1146.42" cy="494.64" fill="#8b9ad9"></circle><circle r="5" cx="1282.33" cy="-95.15" fill="#8b9ad9"></circle><circle r="5" cx="1307.84" cy="381.87" fill="#8b9ad9"></circle><circle r="5" cx="1254.34" cy="523.42" fill="#8b9ad9"></circle><circle r="5" cx="1275.19" cy="654.92" fill="#8b9ad9"></circle><circle r="5" cx="1451.48" cy="-101.05" fill="#8b9ad9"></circle><circle r="5" cx="1397.93" cy="58.87" fill="#8b9ad9"></circle><circle r="5" cx="1398.11" cy="224.44" fill="#8b9ad9"></circle><circle r="5" cx="1396.75" cy="674.51" fill="#8b9ad9"></circle><circle r="5" cx="1560.65" cy="-86.58" fill="#8b9ad9"></circle><circle r="5" cx="1553.59" cy="58.04" fill="#8b9ad9"></circle><circle r="5" cx="1545.57" cy="251.87" fill="#8b9ad9"></circle><circle r="5" cx="1592.58" cy="390.23" fill="#8b9ad9"></circle><circle r="5" cx="1539.14" cy="556.83" fill="#8b9ad9"></circle></g><defs><mask id="SvgjsMask1006"><rect width="1440" height="560" fill="#ffffff"></rect></mask><radialGradient id="SvgjsRadialGradient1007"><stop stop-color="#ffffff" offset="0.1"></stop><stop stop-color="#1735b3" offset="0.2"></stop><stop stop-color="rgba(23, 53, 179, 0)" offset="1"></stop></radialGradient></defs></svg>